<?xml version="1.0" encoding="utf-8"?>
<!-- Generator: Adobe Illustrator 18.0.0, SVG Export Plug-In . SVG Version: 6.00 Build 0)  -->
<!DOCTYPE svg PUBLIC "-//W3C//DTD SVG 1.1//EN" "http://www.w3.org/Graphics/SVG/1.1/DTD/svg11.dtd">
<svg version="1.1" id="Layer_1" xmlns="http://www.w3.org/2000/svg" xmlns:xlink="http://www.w3.org/1999/xlink" x="0px" y="0px"
	 viewBox="0 0 503.9 311.6" enable-background="new 0 0 503.9 311.6" xml:space="preserve">
<polygon fill="#FF6455" points="2.2,142.5 2.2,311.6 501.2,311.6 500.7,138.3 "/>
<ellipse fill="#FF6455" stroke="#FF4932" stroke-width="6" stroke-miterlimit="10" cx="252" cy="144.5" rx="249" ry="92.8"/>
<rect x="85.2" y="52.6" fill="#3D20FF" width="16" height="92"/>
<rect x="144.2" y="74.6" fill="#009146" width="16" height="92"/>
<rect x="200.2" y="36.6" fill="#FF6F2F" width="16" height="92"/>
<rect x="252.2" y="84.6" fill="#D54700" width="16" height="92"/>
<rect x="306.2" y="38.6" fill="#FF1A47" width="16" height="92"/>
<rect x="363.2" y="82.6" fill="#451AFF" width="16" height="92"/>
<rect x="409.2" y="52.6" fill="#00C618" width="16" height="92"/>
<path fill="#ECED00" d="M90.9,60.3c0,0-12.4-4.4,0-37.4S107.4,59.5,90.9,60.3z"/>
<path fill="#ECED00" d="M149.9,83.3c0,0-12.4-4.4,0-37.4C162.3,12.9,166.4,82.5,149.9,83.3z"/>
<path fill="#ECED00" d="M205.9,46.3c0,0-12.4-4.4,0-37.4C218.3-24.1,222.4,45.5,205.9,46.3z"/>
<path fill="#ECED00" d="M260.9,83.3c0,0-12.4-4.4,0-37.4C273.3,12.9,277.4,82.5,260.9,83.3z"/>
<path fill="#ECED00" d="M311.9,46.3c0,0-12.4-4.4,0-37.4S328.4,45.5,311.9,46.3z"/>
<path fill="#ECED00" d="M368.9,83.3c0,0-12.4-4.4,0-37.4S385.4,82.5,368.9,83.3z"/>
<path fill="#ECED00" d="M414.9,56.3c0,0-12.4-4.4,0-37.4S431.4,55.5,414.9,56.3z"/>
</svg>
