<?xml version="1.0" encoding="utf-8"?>
<!-- Generator: Adobe Illustrator 18.0.0, SVG Export Plug-In . SVG Version: 6.00 Build 0)  -->
<!DOCTYPE svg PUBLIC "-//W3C//DTD SVG 1.1//EN" "http://www.w3.org/Graphics/SVG/1.1/DTD/svg11.dtd">
<svg version="1.1" id="Layer_1" xmlns="http://www.w3.org/2000/svg" xmlns:xlink="http://www.w3.org/1999/xlink" x="0px" y="0px"
	 viewBox="0 0 960 560" enable-background="new 0 0 960 560" xml:space="preserve">
<rect x="49.6" y="143.4" transform="matrix(-0.8242 -0.5663 0.5663 -0.8242 12.7612 311.3559)" fill="#FF1D25" width="10.3" height="20.6"/>
<rect x="80" y="91.4" transform="matrix(-0.7449 0.6671 -0.6671 -0.7449 216.4019 120.7257)" fill="#3FA9F5" width="10.3" height="20.6"/>
<rect x="91.2" y="60.8" transform="matrix(-0.6249 -0.7807 0.7807 -0.6249 101.143 190.7276)" fill="#FF931E" width="10.3" height="20.6"/>
<rect x="37.9" y="104.3" transform="matrix(-0.8669 0.4985 -0.4985 -0.8669 137.5836 192.574)" fill="#3FA9F5" width="10.3" height="20.6"/>
<rect x="62.7" y="105" transform="matrix(-0.8242 -0.5663 0.5663 -0.8242 58.4784 248.6929)" fill="#FF1D25" width="10.3" height="20.6"/>
<rect x="25" y="77.9" transform="matrix(-0.6891 -0.7247 0.7247 -0.6891 -13.0815 170.9007)" fill="#FF1D25" width="10.3" height="20.6"/>
<rect x="51.1" y="65.9" transform="matrix(-0.8669 0.4985 -0.4985 -0.8669 142.9411 114.2869)" fill="#3FA9F5" width="10.3" height="20.6"/>
<rect x="62.7" y="41.9" transform="matrix(-0.4498 -0.8932 0.8932 -0.4498 51.716 136.2402)" fill="#FF7BAC" width="10.3" height="20.6"/>
<rect x="107.7" y="79.8" transform="matrix(-0.6891 -0.7247 0.7247 -0.6891 125.3435 234.0044)" fill="#FF7BAC" width="10.3" height="20.6"/>
<rect x="133.8" y="67.8" transform="matrix(-0.8669 0.4985 -0.4985 -0.8669 298.3498 76.5045)" fill="#3FA9F5" width="10.3" height="20.6"/>
<rect x="151.2" y="40.1" transform="matrix(-0.4498 -0.8932 0.8932 -0.4498 181.6154 212.7213)" fill="#FF931E" width="10.3" height="20.6"/>
<rect x="72.8" y="13.8" transform="matrix(6.874317e-02 -0.9976 0.9976 6.874317e-02 48.5529 100.169)" fill="#FF1D25" width="10.3" height="20.6"/>
<rect x="99.3" y="24.9" transform="matrix(-0.9532 -0.3024 0.3024 -0.9532 193.3251 100.3063)" fill="#3FA9F5" width="10.3" height="20.6"/>
<rect x="131.4" y="19" transform="matrix(0.3547 -0.935 0.935 0.3547 60.7285 146.5978)" fill="#FF931E" width="10.3" height="20.6"/>
<rect x="76.3" y="209.3" transform="matrix(-0.8242 -0.5663 0.5663 -0.8242 24.2927 446.6894)" fill="#FF1D25" width="10.3" height="20.6"/>
<rect x="99.4" y="192.1" transform="matrix(-0.7449 0.6671 -0.6671 -0.7449 317.4211 283.4495)" fill="#3FA9F5" width="10.3" height="20.6"/>
<rect x="110.6" y="161.4" transform="matrix(-0.6249 -0.7807 0.7807 -0.6249 54.0711 369.4577)" fill="#FF931E" width="10.3" height="20.6"/>
<rect x="38.6" y="182.3" transform="matrix(-0.6891 -0.7247 0.7247 -0.6891 -65.6237 356.969)" fill="#FF1D25" width="10.3" height="20.6"/>
<rect x="64.7" y="170.2" transform="matrix(-0.8669 0.4985 -0.4985 -0.8669 220.4074 302.2108)" fill="#3FA9F5" width="10.3" height="20.6"/>
<rect x="82.1" y="142.6" transform="matrix(-0.4498 -0.8932 0.8932 -0.4498 -10.0726 299.5212)" fill="#FF931E" width="10.3" height="20.6"/>
<rect x="127.1" y="180.5" transform="matrix(-0.6891 -0.7247 0.7247 -0.6891 85.1615 418.1127)" fill="#FF7BAC" width="10.3" height="20.6"/>
<rect x="153.2" y="168.5" transform="matrix(-0.8669 0.4985 -0.4985 -0.8669 384.7585 254.7778)" fill="#3FA9F5" width="10.3" height="20.6"/>
<rect x="170.6" y="140.8" transform="matrix(-0.4498 -0.8932 0.8932 -0.4498 119.8269 376.0024)" fill="#FF931E" width="10.3" height="20.6"/>
<rect x="92.2" y="114.4" transform="matrix(6.874317e-02 -0.9976 0.9976 6.874317e-02 -33.8143 213.2781)" fill="#FF1D25" width="10.3" height="20.6"/>
<rect x="118.7" y="125.6" transform="matrix(-0.9532 -0.3024 0.3024 -0.9532 200.7814 302.8076)" fill="#3FA9F5" width="10.3" height="20.6"/>
<rect x="150.8" y="119.7" transform="matrix(0.3547 -0.935 0.935 0.3547 -20.8797 229.7062)" fill="#FF931E" width="10.3" height="20.6"/>
<rect x="190.8" y="112.4" transform="matrix(-0.8242 -0.5663 0.5663 -0.8242 287.9453 334.8271)" fill="#FF7BAC" width="10.3" height="20.6"/>
<rect x="213.8" y="95.2" transform="matrix(-0.7449 0.6671 -0.6671 -0.7449 452.5297 38.0763)" fill="#3FA9F5" width="10.3" height="20.6"/>
<rect x="225.1" y="64.6" transform="matrix(-0.6249 -0.7807 0.7807 -0.6249 315.6771 301.4374)" fill="#FF931E" width="10.3" height="20.6"/>
<rect x="153.1" y="85.4" transform="matrix(-0.6891 -0.7247 0.7247 -0.6891 197.9037 276.311)" fill="#FF1D25" width="10.3" height="20.6"/>
<rect x="179.2" y="73.4" transform="matrix(-0.8669 0.4985 -0.4985 -0.8669 385.8085 64.3271)" fill="#3FA9F5" width="10.3" height="20.6"/>
<rect x="196.5" y="45.7" transform="matrix(-0.4498 -0.8932 0.8932 -0.4498 242.3782 261.3323)" fill="#FF931E" width="10.3" height="20.6"/>
<rect x="241.6" y="83.6" transform="matrix(-0.6891 -0.7247 0.7247 -0.6891 348.689 337.4547)" fill="#FF1D25" width="10.3" height="20.6"/>
<rect x="267.7" y="71.6" transform="matrix(-0.8669 0.4985 -0.4985 -0.8669 550.1595 16.8941)" fill="#3FA9F5" width="10.3" height="20.6"/>
<rect x="285" y="43.9" transform="matrix(-0.4498 -0.8932 0.8932 -0.4498 372.2776 337.8134)" fill="#FF931E" width="10.3" height="20.6"/>
<rect x="206.6" y="17.6" transform="matrix(6.874317e-02 -0.9976 0.9976 6.874317e-02 169.4081 237.2693)" fill="#FF1D25" width="10.3" height="20.6"/>
<rect x="233.1" y="28.7" transform="matrix(-0.9532 -0.3024 0.3024 -0.9532 453.6335 148.2334)" fill="#3FA9F5" width="10.3" height="20.6"/>
<rect x="265.3" y="22.8" transform="matrix(0.3547 -0.935 0.935 0.3547 143.5475 274.2216)" fill="#FF931E" width="10.3" height="20.6"/>
<rect x="190.8" y="255.1" transform="matrix(-0.8242 -0.5663 0.5663 -0.8242 207.11 595.1985)" fill="#FF1D25" width="10.3" height="20.6"/>
<rect x="221.2" y="203.2" transform="matrix(-0.7449 0.6671 -0.6671 -0.7449 537.4026 221.5003)" fill="#3FA9F5" width="10.3" height="20.6"/>
<rect x="232.5" y="172.5" transform="matrix(-0.6249 -0.7807 0.7807 -0.6249 243.3865 482.5773)" fill="#7AC943" width="10.3" height="20.6"/>
<rect x="153.1" y="228.1" transform="matrix(-0.6891 -0.7247 0.7247 -0.6891 94.4703 517.4037)" fill="#FF1D25" width="10.3" height="20.6"/>
<rect x="179.2" y="216.1" transform="matrix(-0.8669 0.4985 -0.4985 -0.8669 456.9637 330.7941)" fill="#3FA9F5" width="10.3" height="20.6"/>
<rect x="203.9" y="216.7" transform="matrix(-0.8242 -0.5663 0.5663 -0.8242 252.8271 532.5355)" fill="#FF1D25" width="10.3" height="20.6"/>
<rect x="166.2" y="189.7" transform="matrix(-0.6891 -0.7247 0.7247 -0.6891 144.4979 462.0101)" fill="#FF1D25" width="10.3" height="20.6"/>
<rect x="192.3" y="177.7" transform="matrix(-0.8669 0.4985 -0.4985 -0.8669 462.3213 252.507)" fill="#3FA9F5" width="10.3" height="20.6"/>
<rect x="203.9" y="153.6" transform="matrix(-0.4498 -0.8932 0.8932 -0.4498 156.6612 424.3986)" fill="#7AC943" width="10.3" height="20.6"/>
<rect x="248.9" y="191.6" transform="matrix(-0.6891 -0.7247 0.7247 -0.6891 282.9229 525.1138)" fill="#FF1D25" width="10.3" height="20.6"/>
<rect x="275" y="179.5" transform="matrix(-0.8669 0.4985 -0.4985 -0.8669 617.7299 214.7246)" fill="#BDCCD4" width="10.3" height="20.6"/>
<rect x="292.4" y="151.9" transform="matrix(-0.4498 -0.8932 0.8932 -0.4498 286.5606 500.8797)" fill="#FF931E" width="10.3" height="20.6"/>
<rect x="214" y="125.5" transform="matrix(6.874317e-02 -0.9976 0.9976 6.874317e-02 68.5913 345.1406)" fill="#FF1D25" width="10.3" height="20.6"/>
<rect x="240.5" y="136.6" transform="matrix(-0.9532 -0.3024 0.3024 -0.9532 435.396 361.2842)" fill="#3FA9F5" width="10.3" height="20.6"/>
<rect x="272.6" y="130.7" transform="matrix(0.3547 -0.935 0.935 0.3547 47.3844 350.769)" fill="#FF931E" width="10.3" height="20.6"/>
<rect x="217.6" y="321" transform="matrix(-0.8242 -0.5663 0.5663 -0.8242 218.6414 730.532)" fill="#FF1D25" width="10.3" height="20.6"/>
<rect x="240.6" y="303.8" transform="matrix(-0.7449 0.6671 -0.6671 -0.7449 638.4218 384.2241)" fill="#3FA9F5" width="10.3" height="20.6"/>
<rect x="251.9" y="273.2" transform="matrix(-0.6249 -0.7807 0.7807 -0.6249 196.3146 661.3074)" fill="#FF7BAC" width="10.3" height="20.6"/>
<rect x="179.8" y="294" transform="matrix(-0.6891 -0.7247 0.7247 -0.6891 91.9557 648.0784)" fill="#FF1D25" width="10.3" height="20.6"/>
<rect x="205.9" y="282" transform="matrix(-0.8669 0.4985 -0.4985 -0.8669 539.7875 440.4308)" fill="#3FA9F5" width="10.3" height="20.6"/>
<rect x="223.3" y="254.3" transform="matrix(-0.4498 -0.8932 0.8932 -0.4498 94.8726 587.6796)" fill="#FF931E" width="10.3" height="20.6"/>
<rect x="268.4" y="292.2" transform="matrix(-0.6891 -0.7247 0.7247 -0.6891 242.741 709.2222)" fill="#FF1D25" width="10.3" height="20.6"/>
<rect x="294.4" y="280.2" transform="matrix(-0.8669 0.4985 -0.4985 -0.8669 704.1385 392.9978)" fill="#3FA9F5" width="10.3" height="20.6"/>
<rect x="311.8" y="252.5" transform="matrix(-0.4498 -0.8932 0.8932 -0.4498 224.7721 664.1608)" fill="#FF931E" width="10.3" height="20.6"/>
<rect x="233.4" y="226.2" transform="matrix(6.874317e-02 -0.9976 0.9976 6.874317e-02 -13.7758 458.2496)" fill="#FF1D25" width="10.3" height="20.6"/>
<rect x="259.9" y="237.3" transform="matrix(-0.9532 -0.3024 0.3024 -0.9532 442.8524 563.7856)" fill="#3FA9F5" width="10.3" height="20.6"/>
<rect x="292" y="231.4" transform="matrix(0.3547 -0.935 0.935 0.3547 -34.2238 433.8773)" fill="#FF931E" width="10.3" height="20.6"/>
<rect x="332" y="224.2" transform="matrix(-0.8242 -0.5663 0.5663 -0.8242 482.294 618.6697)" fill="#FF1D25" width="10.3" height="20.6"/>
<rect x="355.1" y="207" transform="matrix(-0.7449 0.6671 -0.6671 -0.7449 773.5304 138.8509)" fill="#3FA9F5" width="10.3" height="20.6"/>
<rect x="366.3" y="176.3" transform="matrix(-0.6249 -0.7807 0.7807 -0.6249 457.9206 593.2871)" fill="#FF931E" width="10.3" height="20.6"/>
<rect x="294.3" y="197.1" transform="matrix(-0.6891 -0.7247 0.7247 -0.6891 355.4832 567.4204)" fill="#FF1D25" width="10.3" height="20.6"/>
<rect x="320.4" y="185.1" transform="matrix(-0.8669 0.4985 -0.4985 -0.8669 705.1887 202.5472)" fill="#3FA9F5" width="10.3" height="20.6"/>
<rect x="337.8" y="157.4" transform="matrix(-0.4498 -0.8932 0.8932 -0.4498 347.3234 549.4907)" fill="#FF931E" width="10.3" height="20.6"/>
<rect x="382.8" y="195.4" transform="matrix(-0.6891 -0.7247 0.7247 -0.6891 506.2684 628.5641)" fill="#FF1D25" width="10.3" height="20.6"/>
<rect x="408.9" y="183.3" transform="matrix(-0.8669 0.4985 -0.4985 -0.8669 869.5397 155.1142)" fill="#3FA9F5" width="10.3" height="20.6"/>
<rect x="426.3" y="155.7" transform="matrix(-0.4498 -0.8932 0.8932 -0.4498 477.2228 625.9718)" fill="#00AE76" width="10.3" height="20.6"/>
<rect x="347.9" y="129.3" transform="matrix(6.874317e-02 -0.9976 0.9976 6.874317e-02 189.4465 482.2409)" fill="#FF1D25" width="10.3" height="20.6"/>
<rect x="374.4" y="140.4" transform="matrix(-0.9532 -0.3024 0.3024 -0.9532 695.7045 409.2114)" fill="#3FA9F5" width="10.3" height="20.6"/>
<rect x="406.5" y="134.6" transform="matrix(0.3547 -0.935 0.935 0.3547 130.2034 478.3927)" fill="#FF931E" width="10.3" height="20.6"/>
<rect x="315.3" y="113.3" transform="matrix(-0.6891 -0.7247 0.7247 -0.6891 451.5957 441.0467)" fill="#BDCCD4" width="10.3" height="20.6"/>
<rect x="341.3" y="101.3" transform="matrix(-0.8669 0.4985 -0.4985 -0.8669 702.5182 35.6524)" fill="#3FA9F5" width="10.3" height="20.6"/>
<rect x="358.7" y="73.6" transform="matrix(-0.4498 -0.8932 0.8932 -0.4498 452.5423 446.7051)" fill="#FF931E" width="10.3" height="20.6"/>
<rect x="338.9" y="52.5" transform="matrix(0.3547 -0.935 0.935 0.3547 163.3027 362.2871)" fill="#FF931E" width="10.3" height="20.6"/>
<rect x="310.1" y="89.5" transform="matrix(-0.4498 -0.8932 0.8932 -0.4498 368.0014 426.248)" fill="#FF931E" width="10.3" height="20.6"/>
<rect x="290.4" y="68.3" transform="matrix(0.3547 -0.935 0.935 0.3547 117.1727 327.0773)" fill="#FF931E" width="10.3" height="20.6"/>
<rect x="45.2" y="264.2" transform="matrix(-0.8669 0.4985 -0.4985 -0.8669 230.9365 487.3805)" fill="#3FA9F5" width="10.3" height="20.6"/>
<rect x="62.6" y="236.5" transform="matrix(-0.4498 -0.8932 0.8932 -0.4498 -122.2307 418.4053)" fill="#FF931E" width="10.3" height="20.6"/>
<rect x="42.8" y="215.4" transform="matrix(0.3547 -0.935 0.935 0.3547 -180.0924 190.557)" fill="#FF931E" width="10.3" height="20.6"/>
<rect x="26.5" y="384.2" transform="matrix(-0.6891 -0.7247 0.7247 -0.6891 -232.3687 689.2874)" fill="#FF1D25" width="10.3" height="20.6"/>
<rect x="52.6" y="372.2" transform="matrix(-0.8669 0.4985 -0.4985 -0.8669 298.5069 685.2111)" fill="#BDCCD4" width="10.3" height="20.6"/>
<rect x="70" y="344.5" transform="matrix(-0.4498 -0.8932 0.8932 -0.4498 -207.9477 581.4716)" fill="#FF931E" width="10.3" height="20.6"/>
<rect x="18.1" y="329.3" transform="matrix(-0.9532 -0.3024 0.3024 -0.9532 -57.2919 670.2587)" fill="#3FA9F5" width="10.3" height="20.6"/>
<rect x="50.2" y="323.4" transform="matrix(0.3547 -0.935 0.935 0.3547 -276.2554 267.1044)" fill="#FF931E" width="10.3" height="20.6"/>
<rect x="29.4" y="465.8" transform="matrix(-0.6249 -0.7807 0.7807 -0.6249 -315.4897 800.6403)" fill="#FF7BAC" width="10.3" height="20.6"/>
<rect x="45.9" y="484.9" transform="matrix(-0.6891 -0.7247 0.7247 -0.6891 -272.5507 873.3958)" fill="#FF1D25" width="10.3" height="20.6"/>
<rect x="72" y="472.8" transform="matrix(-0.8669 0.4985 -0.4985 -0.8669 384.9156 863.4843)" fill="#3FA9F5" width="10.3" height="20.6"/>
<rect x="89.4" y="445.2" transform="matrix(-0.4498 -0.8932 0.8932 -0.4498 -269.7362 744.7527)" fill="#FF931E" width="10.3" height="20.6"/>
<rect x="37.5" y="429.9" transform="matrix(-0.9532 -0.3024 0.3024 -0.9532 -49.8356 872.76)" fill="#3FA9F5" width="10.3" height="20.6"/>
<rect x="69.6" y="424" transform="matrix(0.3547 -0.935 0.935 0.3547 -357.8636 350.2128)" fill="#FF931E" width="10.3" height="20.6"/>
<rect x="109.6" y="416.8" transform="matrix(-0.8242 -0.5663 0.5663 -0.8242 -32.544 844.076)" fill="#FF1D25" width="10.3" height="20.6"/>
<rect x="132.6" y="399.6" transform="matrix(-0.7449 0.6671 -0.6671 -0.7449 513.9157 623.3547)" fill="#3FA9F5" width="10.3" height="20.6"/>
<rect x="143.9" y="368.9" transform="matrix(-0.6249 -0.7807 0.7807 -0.6249 -53.8838 732.6199)" fill="#FF931E" width="10.3" height="20.6"/>
<rect x="71.9" y="389.8" transform="matrix(-0.6891 -0.7247 0.7247 -0.6891 -159.8085 731.5941)" fill="#FF1D25" width="10.3" height="20.6"/>
<rect x="98" y="377.7" transform="matrix(-0.8669 0.4985 -0.4985 -0.8669 385.9656 673.0336)" fill="#3FA9F5" width="10.3" height="20.6"/>
<rect x="115.3" y="350.1" transform="matrix(-0.4498 -0.8932 0.8932 -0.4498 -147.1849 630.0826)" fill="#FF931E" width="10.3" height="20.6"/>
<rect x="125.4" y="322" transform="matrix(6.874317e-02 -0.9976 0.9976 6.874317e-02 -209.8581 439.7184)" fill="#FF1D25" width="10.3" height="20.6"/>
<rect x="92.8" y="306" transform="matrix(-0.6891 -0.7247 0.7247 -0.6891 -63.6959 605.2203)" fill="#BDCCD4" width="10.3" height="20.6"/>
<rect x="118.9" y="293.9" transform="matrix(-0.8669 0.4985 -0.4985 -0.8669 383.2952 506.1388)" fill="#3FA9F5" width="10.3" height="20.6"/>
<rect x="136.3" y="266.3" transform="matrix(-0.4498 -0.8932 0.8932 -0.4498 -41.9659 527.297)" fill="#FF931E" width="10.3" height="20.6"/>
<rect x="116.5" y="245.2" transform="matrix(0.3547 -0.935 0.935 0.3547 -160.3372 278.6225)" fill="#FF931E" width="10.3" height="20.6"/>
<rect x="87.7" y="282.1" transform="matrix(-0.4498 -0.8932 0.8932 -0.4498 -126.5069 506.8399)" fill="#FF931E" width="10.3" height="20.6"/>
<rect x="67.9" y="261" transform="matrix(0.3547 -0.935 0.935 0.3547 -206.4672 243.4127)" fill="#FF931E" width="10.3" height="20.6"/>
<rect x="170.5" y="480.8" transform="matrix(-0.8242 -0.5663 0.5663 -0.8242 42.282 995.349)" fill="#FF1D25" width="10.3" height="20.6"/>
<rect x="200.9" y="428.8" transform="matrix(-0.7449 0.6671 -0.6671 -0.7449 652.5333 628.8049)" fill="#3FA9F5" width="10.3" height="20.6"/>
<rect x="212.2" y="398.2" transform="matrix(-0.6249 -0.7807 0.7807 -0.6249 34.2257 833.4033)" fill="#FF931E" width="10.3" height="20.6"/>
<rect x="132.8" y="453.8" transform="matrix(-0.6891 -0.7247 0.7247 -0.6891 -103.3435 883.861)" fill="#FF1D25" width="10.3" height="20.6"/>
<rect x="158.9" y="441.8" transform="matrix(-0.8669 0.4985 -0.4985 -0.8669 531.5654 762.1962)" fill="#3FA9F5" width="10.3" height="20.6"/>
<rect x="183.6" y="442.4" transform="matrix(-0.8242 -0.5663 0.5663 -0.8242 87.9992 932.686)" fill="#FF1D25" width="10.3" height="20.6"/>
<rect x="145.9" y="415.4" transform="matrix(-0.6891 -0.7247 0.7247 -0.6891 -53.3159 828.4674)" fill="#FF1D25" width="10.3" height="20.6"/>
<rect x="172" y="403.3" transform="matrix(-0.8669 0.4985 -0.4985 -0.8669 536.9229 683.9091)" fill="#3FA9F5" width="10.3" height="20.6"/>
<rect x="183.6" y="379.3" transform="matrix(-0.4498 -0.8932 0.8932 -0.4498 -74.3164 733.4235)" fill="#FF7BAC" width="10.3" height="20.6"/>
<rect x="228.7" y="417.2" transform="matrix(-0.6891 -0.7247 0.7247 -0.6891 85.1091 891.571)" fill="#FF7BAC" width="10.3" height="20.6"/>
<rect x="254.7" y="405.2" transform="matrix(-0.8669 0.4985 -0.4985 -0.8669 692.3315 646.1268)" fill="#3FA9F5" width="10.3" height="20.6"/>
<rect x="272.1" y="377.5" transform="matrix(-0.4498 -0.8932 0.8932 -0.4498 55.5831 809.9045)" fill="#FF931E" width="10.3" height="20.6"/>
<rect x="193.7" y="351.2" transform="matrix(6.874317e-02 -0.9976 0.9976 6.874317e-02 -175.4394 535.0392)" fill="#FF1D25" width="10.3" height="20.6"/>
<rect x="220.2" y="362.3" transform="matrix(-0.9532 -0.3024 0.3024 -0.9532 327.5187 795.9078)" fill="#3FA9F5" width="10.3" height="20.6"/>
<rect x="252.3" y="356.4" transform="matrix(0.3547 -0.935 0.935 0.3547 -176.7063 477.4164)" fill="#FF931E" width="10.3" height="20.6"/>
<rect x="197.3" y="546.7" transform="matrix(-0.8242 -0.5663 0.5663 -0.8242 53.8135 1130.6825)" fill="#FF1D25" width="10.3" height="20.6"/>
<rect x="220.3" y="529.5" transform="matrix(-0.7449 0.6671 -0.6671 -0.7449 753.5525 791.5287)" fill="#3FA9F5" width="10.3" height="20.6"/>
<rect x="231.6" y="498.8" transform="matrix(-0.6249 -0.7807 0.7807 -0.6249 -12.8462 1012.1334)" fill="#FF931E" width="10.3" height="20.6"/>
<rect x="159.5" y="519.7" transform="matrix(-0.6891 -0.7247 0.7247 -0.6891 -105.8582 1014.5356)" fill="#FF1D25" width="10.3" height="20.6"/>
<rect x="185.6" y="507.6" transform="matrix(-0.8669 0.4985 -0.4985 -0.8669 614.3892 871.8331)" fill="#3FA9F5" width="10.3" height="20.6"/>
<rect x="203" y="480" transform="matrix(-0.4498 -0.8932 0.8932 -0.4498 -136.1049 896.7045)" fill="#FF931E" width="10.3" height="20.6"/>
<rect x="248.1" y="517.9" transform="matrix(-0.6891 -0.7247 0.7247 -0.6891 44.9271 1075.6794)" fill="#FF7BAC" width="10.3" height="20.6"/>
<rect x="274.1" y="505.9" transform="matrix(-0.8669 0.4985 -0.4985 -0.8669 778.7402 824.4)" fill="#3FA9F5" width="10.3" height="20.6"/>
<rect x="291.5" y="478.2" transform="matrix(-0.4498 -0.8932 0.8932 -0.4498 -6.2055 973.1856)" fill="#FF931E" width="10.3" height="20.6"/>
<rect x="213.1" y="451.9" transform="matrix(6.874317e-02 -0.9976 0.9976 6.874317e-02 -257.8065 648.1483)" fill="#FF1D25" width="10.3" height="20.6"/>
<rect x="239.6" y="463" transform="matrix(-0.9532 -0.3024 0.3024 -0.9532 334.975 998.4092)" fill="#3FA9F5" width="10.3" height="20.6"/>
<rect x="271.7" y="457.1" transform="matrix(0.3547 -0.935 0.935 0.3547 -258.3146 560.5248)" fill="#FF931E" width="10.3" height="20.6"/>
<rect x="311.7" y="449.8" transform="matrix(-0.8242 -0.5663 0.5663 -0.8242 317.466 1018.8202)" fill="#FF7BAC" width="10.3" height="20.6"/>
<rect x="334.8" y="432.7" transform="matrix(-0.7449 0.6671 -0.6671 -0.7449 888.6611 546.1555)" fill="#3FA9F5" width="10.3" height="20.6"/>
<rect x="346" y="402" transform="matrix(-0.6249 -0.7807 0.7807 -0.6249 248.7597 944.113)" fill="#FF931E" width="10.3" height="20.6"/>
<rect x="274" y="422.8" transform="matrix(-0.6891 -0.7247 0.7247 -0.6891 157.6693 933.8777)" fill="#FF1D25" width="10.3" height="20.6"/>
<rect x="300.1" y="410.8" transform="matrix(-0.8669 0.4985 -0.4985 -0.8669 779.7903 633.9493)" fill="#3FA9F5" width="10.3" height="20.6"/>
<rect x="317.5" y="383.1" transform="matrix(-0.4498 -0.8932 0.8932 -0.4498 116.3458 858.5155)" fill="#FF931E" width="10.3" height="20.6"/>
<rect x="362.5" y="421" transform="matrix(-0.6891 -0.7247 0.7247 -0.6891 308.4546 995.0214)" fill="#FF1D25" width="10.3" height="20.6"/>
<rect x="388.6" y="409" transform="matrix(-0.8669 0.4985 -0.4985 -0.8669 944.1413 586.5164)" fill="#3FA9F5" width="10.3" height="20.6"/>
<rect x="406" y="381.3" transform="matrix(-0.4498 -0.8932 0.8932 -0.4498 246.2453 934.9966)" fill="#FF931E" width="10.3" height="20.6"/>
<rect x="327.6" y="355" transform="matrix(6.874317e-02 -0.9976 0.9976 6.874317e-02 -54.5841 672.1395)" fill="#FF1D25" width="10.3" height="20.6"/>
<rect x="354.1" y="366.1" transform="matrix(-0.9532 -0.3024 0.3024 -0.9532 587.8271 843.835)" fill="#3FA9F5" width="10.3" height="20.6"/>
<rect x="386.2" y="360.2" transform="matrix(0.3547 -0.935 0.935 0.3547 -93.8874 605.0402)" fill="#FF931E" width="10.3" height="20.6"/>
<rect x="342.1" y="540.6" transform="matrix(-0.7449 0.6671 -0.6671 -0.7449 973.534 729.5795)" fill="#3FA9F5" width="10.3" height="20.6"/>
<rect x="353.4" y="509.9" transform="matrix(-0.6249 -0.7807 0.7807 -0.6249 176.4692 1125.2529)" fill="#7AC943" width="10.3" height="20.6"/>
<rect x="287.1" y="527.1" transform="matrix(-0.6891 -0.7247 0.7247 -0.6891 104.2635 1119.5768)" fill="#FF1D25" width="10.3" height="20.6"/>
<rect x="313.2" y="515.1" transform="matrix(-0.8669 0.4985 -0.4985 -0.8669 856.303 822.1292)" fill="#3FA9F5" width="10.3" height="20.6"/>
<rect x="324.8" y="491" transform="matrix(-0.4498 -0.8932 0.8932 -0.4498 30.6288 1021.5818)" fill="#7AC943" width="10.3" height="20.6"/>
<rect x="369.9" y="529" transform="matrix(-0.6891 -0.7247 0.7247 -0.6891 242.6885 1182.6805)" fill="#FF1D25" width="10.3" height="20.6"/>
<rect x="396" y="516.9" transform="matrix(-0.8669 0.4985 -0.4985 -0.8669 1011.7117 784.3468)" fill="#BDCCD4" width="10.3" height="20.6"/>
<rect x="413.4" y="489.3" transform="matrix(-0.4498 -0.8932 0.8932 -0.4498 160.5282 1098.063)" fill="#FF931E" width="10.3" height="20.6"/>
<rect x="334.9" y="462.9" transform="matrix(6.874317e-02 -0.9976 0.9976 6.874317e-02 -155.4009 780.0108)" fill="#FF1D25" width="10.3" height="20.6"/>
<rect x="361.4" y="474" transform="matrix(-0.9532 -0.3024 0.3024 -0.9532 569.5897 1056.8857)" fill="#3FA9F5" width="10.3" height="20.6"/>
<rect x="393.6" y="468.2" transform="matrix(0.3547 -0.935 0.935 0.3547 -190.0504 681.5876)" fill="#FF931E" width="10.3" height="20.6"/>
<rect x="476" y="544.4" transform="matrix(-0.7449 0.6671 -0.6671 -0.7449 1209.6619 646.9302)" fill="#3FA9F5" width="10.3" height="20.6"/>
<rect x="487.3" y="513.7" transform="matrix(-0.6249 -0.7807 0.7807 -0.6249 391.0032 1235.9628)" fill="#FF931E" width="10.3" height="20.6"/>
<rect x="415.2" y="534.6" transform="matrix(-0.6891 -0.7247 0.7247 -0.6891 315.2487 1224.9871)" fill="#FF1D25" width="10.3" height="20.6"/>
<rect x="441.3" y="522.5" transform="matrix(-0.8669 0.4985 -0.4985 -0.8669 1099.1704 772.1694)" fill="#3FA9F5" width="10.3" height="20.6"/>
<rect x="458.7" y="494.9" transform="matrix(-0.4498 -0.8932 0.8932 -0.4498 221.291 1146.674)" fill="#FF931E" width="10.3" height="20.6"/>
<rect x="468.8" y="466.8" transform="matrix(6.874317e-02 -0.9976 0.9976 6.874317e-02 -34.5457 917.1111)" fill="#FF1D25" width="10.3" height="20.6"/>
<rect x="436.2" y="450.8" transform="matrix(-0.6891 -0.7247 0.7247 -0.6891 411.3613 1098.6133)" fill="#BDCCD4" width="10.3" height="20.6"/>
<rect x="462.3" y="438.7" transform="matrix(-0.8669 0.4985 -0.4985 -0.8669 1096.5 605.2746)" fill="#3FA9F5" width="10.3" height="20.6"/>
<rect x="479.7" y="411.1" transform="matrix(-0.4498 -0.8932 0.8932 -0.4498 326.51 1043.8883)" fill="#FF931E" width="10.3" height="20.6"/>
<rect x="459.9" y="389.9" transform="matrix(0.3547 -0.935 0.935 0.3547 -74.1321 693.1057)" fill="#FF931E" width="10.3" height="20.6"/>
<rect x="431.1" y="426.9" transform="matrix(-0.4498 -0.8932 0.8932 -0.4498 241.969 1023.4313)" fill="#FF931E" width="10.3" height="20.6"/>
<rect x="411.3" y="405.8" transform="matrix(0.3547 -0.935 0.935 0.3547 -120.2622 657.8959)" fill="#FF931E" width="10.3" height="20.6"/>
<rect x="589.8" y="303.1" transform="matrix(-0.8242 -0.5663 0.5663 -0.8242 907.8648 908.6203)" fill="#FF1D25" width="10.3" height="20.6"/>
<rect x="620.2" y="251.1" transform="matrix(-0.7449 0.6671 -0.6671 -0.7449 1265.6582 38.9261)" fill="#3FA9F5" width="10.3" height="20.6"/>
<rect x="631.5" y="220.4" transform="matrix(-0.6249 -0.7807 0.7807 -0.6249 854.3414 871.9922)" fill="#FF931E" width="10.3" height="20.6"/>
<rect x="552.1" y="276.1" transform="matrix(-0.6891 -0.7247 0.7247 -0.6891 733.7404 887.5272)" fill="#FF1D25" width="10.3" height="20.6"/>
<rect x="578.2" y="264" transform="matrix(-0.8669 0.4985 -0.4985 -0.8669 1225.8002 221.3544)" fill="#3FA9F5" width="10.3" height="20.6"/>
<rect x="603" y="264.6" transform="matrix(-0.8242 -0.5663 0.5663 -0.8242 953.582 845.9573)" fill="#FF1D25" width="10.3" height="20.6"/>
<rect x="565.2" y="237.6" transform="matrix(-0.6891 -0.7247 0.7247 -0.6891 783.7681 832.1336)" fill="#FF1D25" width="10.3" height="20.6"/>
<rect x="591.3" y="225.6" transform="matrix(-0.8669 0.4985 -0.4985 -0.8669 1231.1577 143.0673)" fill="#3FA9F5" width="10.3" height="20.6"/>
<rect x="648" y="239.5" transform="matrix(-0.6891 -0.7247 0.7247 -0.6891 922.1932 895.2374)" fill="#FF7BAC" width="10.3" height="20.6"/>
<rect x="674.1" y="227.5" transform="matrix(-0.8669 0.4985 -0.4985 -0.8669 1386.5664 105.2849)" fill="#3FA9F5" width="10.3" height="20.6"/>
<rect x="616.6" y="368.9" transform="matrix(-0.8242 -0.5663 0.5663 -0.8242 919.3963 1043.9539)" fill="#FF1D25" width="10.3" height="20.6"/>
<rect x="639.6" y="351.8" transform="matrix(-0.7449 0.6671 -0.6671 -0.7449 1366.6775 201.65)" fill="#3FA9F5" width="10.3" height="20.6"/>
<rect x="650.9" y="321.1" transform="matrix(-0.6249 -0.7807 0.7807 -0.6249 807.2695 1050.7223)" fill="#FF931E" width="10.3" height="20.6"/>
<rect x="578.9" y="341.9" transform="matrix(-0.6891 -0.7247 0.7247 -0.6891 731.2259 1018.2018)" fill="#FF1D25" width="10.3" height="20.6"/>
<rect x="605" y="329.9" transform="matrix(-0.8669 0.4985 -0.4985 -0.8669 1308.624 330.9912)" fill="#3FA9F5" width="10.3" height="20.6"/>
<rect x="622.3" y="302.2" transform="matrix(-0.4498 -0.8932 0.8932 -0.4498 630.5583 1013.5639)" fill="#FF931E" width="10.3" height="20.6"/>
<rect x="667.4" y="340.2" transform="matrix(-0.6891 -0.7247 0.7247 -0.6891 882.0111 1079.3456)" fill="#FF7BAC" width="10.3" height="20.6"/>
<rect x="693.5" y="328.1" transform="matrix(-0.8669 0.4985 -0.4985 -0.8669 1472.975 283.5582)" fill="#3FA9F5" width="10.3" height="20.6"/>
<rect x="710.8" y="300.5" transform="matrix(-0.4498 -0.8932 0.8932 -0.4498 760.4578 1090.045)" fill="#FF931E" width="10.3" height="20.6"/>
<rect x="632.4" y="274.1" transform="matrix(6.874317e-02 -0.9976 0.9976 6.874317e-02 310.005 900.973)" fill="#FF1D25" width="10.3" height="20.6"/>
<rect x="658.9" y="285.2" transform="matrix(-0.9532 -0.3024 0.3024 -0.9532 1207.743 778.0568)" fill="#3FA9F5" width="10.3" height="20.6"/>
<rect x="691.1" y="279.4" transform="matrix(0.3547 -0.935 0.935 0.3547 178.4661 837.8992)" fill="#FF931E" width="10.3" height="20.6"/>
<rect x="731.1" y="272.1" transform="matrix(-0.8242 -0.5663 0.5663 -0.8242 1183.0488 932.0915)" fill="#FF7BAC" width="10.3" height="20.6"/>
<rect x="754.1" y="254.9" transform="matrix(-0.7449 0.6671 -0.6671 -0.7449 1501.7861 -43.7232)" fill="#3FA9F5" width="10.3" height="20.6"/>
<rect x="765.4" y="224.3" transform="matrix(-0.6249 -0.7807 0.7807 -0.6249 1068.8755 982.7019)" fill="#FF931E" width="10.3" height="20.6"/>
<rect x="693.3" y="245.1" transform="matrix(-0.6891 -0.7247 0.7247 -0.6891 994.7533 937.5439)" fill="#FF1D25" width="10.3" height="20.6"/>
<rect x="719.4" y="233.1" transform="matrix(-0.8669 0.4985 -0.4985 -0.8669 1474.025 93.1075)" fill="#3FA9F5" width="10.3" height="20.6"/>
<rect x="736.8" y="205.4" transform="matrix(-0.4498 -0.8932 0.8932 -0.4498 883.0092 975.3749)" fill="#FF931E" width="10.3" height="20.6"/>
<rect x="781.8" y="243.3" transform="matrix(-0.6891 -0.7247 0.7247 -0.6891 1145.5386 998.6877)" fill="#FF1D25" width="10.3" height="20.6"/>
<rect x="807.9" y="231.3" transform="matrix(-0.8669 0.4985 -0.4985 -0.8669 1638.3761 45.6745)" fill="#3FA9F5" width="10.3" height="20.6"/>
<rect x="731.1" y="414.8" transform="matrix(-0.8242 -0.5663 0.5663 -0.8242 1102.2135 1192.4629)" fill="#FF1D25" width="10.3" height="20.6"/>
<rect x="761.5" y="362.9" transform="matrix(-0.7449 0.6671 -0.6671 -0.7449 1586.6591 139.7008)" fill="#3FA9F5" width="10.3" height="20.6"/>
<rect x="772.7" y="332.2" transform="matrix(-0.6249 -0.7807 0.7807 -0.6249 996.5849 1163.8419)" fill="#7AC943" width="10.3" height="20.6"/>
<rect x="693.3" y="387.8" transform="matrix(-0.6891 -0.7247 0.7247 -0.6891 891.3198 1178.6366)" fill="#FF1D25" width="10.3" height="20.6"/>
<rect x="719.4" y="375.8" transform="matrix(-0.8669 0.4985 -0.4985 -0.8669 1545.1803 359.5745)" fill="#3FA9F5" width="10.3" height="20.6"/>
<rect x="744.2" y="376.4" transform="matrix(-0.8242 -0.5663 0.5663 -0.8242 1147.9307 1129.7999)" fill="#FF1D25" width="10.3" height="20.6"/>
<rect x="706.5" y="349.4" transform="matrix(-0.6891 -0.7247 0.7247 -0.6891 941.3475 1123.243)" fill="#FF1D25" width="10.3" height="20.6"/>
<rect x="732.6" y="337.4" transform="matrix(-0.8669 0.4985 -0.4985 -0.8669 1550.5378 281.2874)" fill="#3FA9F5" width="10.3" height="20.6"/>
<rect x="744.2" y="313.3" transform="matrix(-0.4498 -0.8932 0.8932 -0.4498 797.2922 1138.4413)" fill="#7AC943" width="10.3" height="20.6"/>
<rect x="789.2" y="351.2" transform="matrix(-0.6891 -0.7247 0.7247 -0.6891 1079.7726 1186.3468)" fill="#FF1D25" width="10.3" height="20.6"/>
<rect x="815.3" y="339.2" transform="matrix(-0.8669 0.4985 -0.4985 -0.8669 1705.9465 243.505)" fill="#BDCCD4" width="10.3" height="20.6"/>
<rect x="832.7" y="311.5" transform="matrix(-0.4498 -0.8932 0.8932 -0.4498 927.1915 1214.9224)" fill="#FF931E" width="10.3" height="20.6"/>
<rect x="754.3" y="285.2" transform="matrix(6.874317e-02 -0.9976 0.9976 6.874317e-02 412.4106 1032.8354)" fill="#FF1D25" width="10.3" height="20.6"/>
<rect x="780.8" y="296.3" transform="matrix(-0.9532 -0.3024 0.3024 -0.9532 1442.3577 836.5333)" fill="#3FA9F5" width="10.3" height="20.6"/>
<rect x="812.9" y="290.4" transform="matrix(0.3547 -0.935 0.935 0.3547 246.7303 958.962)" fill="#FF931E" width="10.3" height="20.6"/>
<rect x="757.8" y="480.7" transform="matrix(-0.8242 -0.5663 0.5663 -0.8242 1113.745 1327.7965)" fill="#FF1D25" width="10.3" height="20.6"/>
<rect x="780.9" y="463.5" transform="matrix(-0.7449 0.6671 -0.6671 -0.7449 1687.6782 302.4247)" fill="#3FA9F5" width="10.3" height="20.6"/>
<rect x="792.1" y="432.9" transform="matrix(-0.6249 -0.7807 0.7807 -0.6249 949.5131 1342.572)" fill="#FF7BAC" width="10.3" height="20.6"/>
<rect x="720.1" y="453.7" transform="matrix(-0.6891 -0.7247 0.7247 -0.6891 888.8053 1309.3113)" fill="#FF1D25" width="10.3" height="20.6"/>
<rect x="746.2" y="441.7" transform="matrix(-0.8669 0.4985 -0.4985 -0.8669 1628.0042 469.2113)" fill="#3FA9F5" width="10.3" height="20.6"/>
<rect x="763.6" y="414" transform="matrix(-0.4498 -0.8932 0.8932 -0.4498 735.5035 1301.7223)" fill="#FF931E" width="10.3" height="20.6"/>
<rect x="808.6" y="451.9" transform="matrix(-0.6891 -0.7247 0.7247 -0.6891 1039.5906 1370.4551)" fill="#FF1D25" width="10.3" height="20.6"/>
<rect x="834.7" y="439.9" transform="matrix(-0.8669 0.4985 -0.4985 -0.8669 1792.3551 421.7783)" fill="#3FA9F5" width="10.3" height="20.6"/>
<rect x="852.1" y="412.2" transform="matrix(-0.4498 -0.8932 0.8932 -0.4498 865.403 1378.2035)" fill="#FF931E" width="10.3" height="20.6"/>
<rect x="773.7" y="385.9" transform="matrix(6.874317e-02 -0.9976 0.9976 6.874317e-02 330.0434 1145.9446)" fill="#FF1D25" width="10.3" height="20.6"/>
<rect x="800.2" y="397" transform="matrix(-0.9532 -0.3024 0.3024 -0.9532 1449.814 1039.0347)" fill="#3FA9F5" width="10.3" height="20.6"/>
<rect x="832.3" y="391.1" transform="matrix(0.3547 -0.935 0.935 0.3547 165.1221 1042.0703)" fill="#FF931E" width="10.3" height="20.6"/>
<rect x="872.3" y="383.8" transform="matrix(-0.8242 -0.5663 0.5663 -0.8242 1377.3976 1215.9342)" fill="#FF1D25" width="10.3" height="20.6"/>
<rect x="895.3" y="366.7" transform="matrix(-0.7449 0.6671 -0.6671 -0.7449 1822.7869 57.0515)" fill="#3FA9F5" width="10.3" height="20.6"/>
<rect x="906.6" y="336" transform="matrix(-0.6249 -0.7807 0.7807 -0.6249 1211.119 1274.5516)" fill="#FF931E" width="10.3" height="20.6"/>
<rect x="834.6" y="356.8" transform="matrix(-0.6891 -0.7247 0.7247 -0.6891 1152.3326 1228.6533)" fill="#FF1D25" width="10.3" height="20.6"/>
<rect x="860.7" y="344.8" transform="matrix(-0.8669 0.4985 -0.4985 -0.8669 1793.4052 231.3276)" fill="#3FA9F5" width="10.3" height="20.6"/>
<rect x="878" y="317.1" transform="matrix(-0.4498 -0.8932 0.8932 -0.4498 987.9543 1263.5333)" fill="#FF931E" width="10.3" height="20.6"/>
<rect x="923.1" y="355.1" transform="matrix(-0.6891 -0.7247 0.7247 -0.6891 1303.118 1289.7971)" fill="#FF1D25" width="10.3" height="20.6"/>
<rect x="949.2" y="343" transform="matrix(-0.8669 0.4985 -0.4985 -0.8669 1957.7562 183.8945)" fill="#3FA9F5" width="10.3" height="20.6"/>
<rect x="966.5" y="315.4" transform="matrix(-0.4498 -0.8932 0.8932 -0.4498 1117.8538 1340.0144)" fill="#00AE76" width="10.3" height="20.6"/>
<rect x="888.1" y="289" transform="matrix(6.874317e-02 -0.9976 0.9976 6.874317e-02 533.2658 1169.9358)" fill="#FF1D25" width="10.3" height="20.6"/>
<rect x="914.6" y="300.1" transform="matrix(-0.9532 -0.3024 0.3024 -0.9532 1702.6661 884.4605)" fill="#3FA9F5" width="10.3" height="20.6"/>
<rect x="946.8" y="294.2" transform="matrix(0.3547 -0.935 0.935 0.3547 329.5492 1086.5857)" fill="#FF931E" width="10.3" height="20.6"/>
<rect x="855.5" y="273" transform="matrix(-0.6891 -0.7247 0.7247 -0.6891 1248.4453 1102.2797)" fill="#BDCCD4" width="10.3" height="20.6"/>
<rect x="881.6" y="261" transform="matrix(-0.8669 0.4985 -0.4985 -0.8669 1790.7347 64.4328)" fill="#3FA9F5" width="10.3" height="20.6"/>
<rect x="899" y="233.3" transform="matrix(-0.4498 -0.8932 0.8932 -0.4498 1093.1732 1160.7477)" fill="#FF931E" width="10.3" height="20.6"/>
<rect x="879.2" y="212.2" transform="matrix(0.3547 -0.935 0.935 0.3547 362.6486 970.4801)" fill="#FF931E" width="10.3" height="20.6"/>
<rect x="850.4" y="249.1" transform="matrix(-0.4498 -0.8932 0.8932 -0.4498 1008.6323 1140.2906)" fill="#FF931E" width="10.3" height="20.6"/>
<rect x="414.9" y="204.7" transform="matrix(-0.8242 -0.5663 0.5663 -0.8242 644.5386 630.0456)" fill="#FF7BAC" width="10.3" height="20.6"/>
<rect x="438" y="187.5" transform="matrix(-0.7449 0.6671 -0.6671 -0.7449 905.1564 49.5307)" fill="#3FA9F5" width="10.3" height="20.6"/>
<rect x="465.7" y="175.9" transform="matrix(-0.6891 -0.7247 0.7247 -0.6891 660.4045 655.6966)" fill="#FF1D25" width="10.3" height="20.6"/>
<rect x="414.9" y="347.4" transform="matrix(-0.8242 -0.5663 0.5663 -0.8242 563.7032 890.417)" fill="#FF1D25" width="10.3" height="20.6"/>
<rect x="445.3" y="295.4" transform="matrix(-0.7449 0.6671 -0.6671 -0.7449 990.0294 232.9547)" fill="#3FA9F5" width="10.3" height="20.6"/>
<rect x="456.6" y="264.8" transform="matrix(-0.6249 -0.7807 0.7807 -0.6249 535.5355 807.4585)" fill="#7AC943" width="10.3" height="20.6"/>
<rect x="428" y="309" transform="matrix(-0.8242 -0.5663 0.5663 -0.8242 609.4205 827.754)" fill="#FF1D25" width="10.3" height="20.6"/>
<rect x="416.4" y="269.9" transform="matrix(-0.8669 0.4985 -0.4985 -0.8669 926.7239 313.0065)" fill="#3FA9F5" width="10.3" height="20.6"/>
<rect x="428" y="245.9" transform="matrix(-0.4498 -0.8932 0.8932 -0.4498 399.1882 758.3221)" fill="#7AC943" width="10.3" height="20.6"/>
<rect x="473.1" y="283.8" transform="matrix(-0.6891 -0.7247 0.7247 -0.6891 594.6384 843.3557)" fill="#FF1D25" width="10.3" height="20.6"/>
<rect x="499.2" y="271.8" transform="matrix(-0.8669 0.4985 -0.4985 -0.8669 1082.1326 275.2241)" fill="#BDCCD4" width="10.3" height="20.6"/>
<rect x="516.5" y="244.1" transform="matrix(-0.4498 -0.8932 0.8932 -0.4498 529.0876 834.8032)" fill="#FF931E" width="10.3" height="20.6"/>
<rect x="438.1" y="217.8" transform="matrix(6.874317e-02 -0.9976 0.9976 6.874317e-02 185.2713 654.6471)" fill="#FF1D25" width="10.3" height="20.6"/>
<rect x="464.6" y="228.9" transform="matrix(-0.9532 -0.3024 0.3024 -0.9532 845.2589 609.2419)" fill="#3FA9F5" width="10.3" height="20.6"/>
<rect x="496.8" y="223" transform="matrix(0.3547 -0.935 0.935 0.3547 105.7605 619.8576)" fill="#FF931E" width="10.3" height="20.6"/>
<rect x="476" y="365.4" transform="matrix(-0.6249 -0.7807 0.7807 -0.6249 488.4636 986.1886)" fill="#FF7BAC" width="10.3" height="20.6"/>
<rect x="447.4" y="346.6" transform="matrix(-0.4498 -0.8932 0.8932 -0.4498 337.3997 921.6032)" fill="#FF931E" width="10.3" height="20.6"/>
<rect x="535.9" y="344.8" transform="matrix(-0.4498 -0.8932 0.8932 -0.4498 467.2991 998.0844)" fill="#FF931E" width="10.3" height="20.6"/>
<rect x="457.5" y="318.4" transform="matrix(6.874317e-02 -0.9976 0.9976 6.874317e-02 102.9041 767.7562)" fill="#FF1D25" width="10.3" height="20.6"/>
<rect x="484" y="329.6" transform="matrix(-0.9532 -0.3024 0.3024 -0.9532 852.7153 811.7433)" fill="#3FA9F5" width="10.3" height="20.6"/>
<rect x="516.2" y="323.7" transform="matrix(0.3547 -0.935 0.935 0.3547 24.1523 702.9659)" fill="#FF931E" width="10.3" height="20.6"/>
<rect x="556.2" y="316.4" transform="matrix(-0.8242 -0.5663 0.5663 -0.8242 838.8873 913.8882)" fill="#FF1D25" width="10.3" height="20.6"/>
<rect x="579.2" y="299.2" transform="matrix(-0.7449 0.6671 -0.6671 -0.7449 1226.1572 150.3053)" fill="#3FA9F5" width="10.3" height="20.6"/>
<rect x="590.5" y="268.6" transform="matrix(-0.6249 -0.7807 0.7807 -0.6249 750.0695 918.1682)" fill="#FF931E" width="10.3" height="20.6"/>
<rect x="518.4" y="289.4" transform="matrix(-0.6891 -0.7247 0.7247 -0.6891 667.1985 885.6622)" fill="#FF1D25" width="10.3" height="20.6"/>
<rect x="544.5" y="277.4" transform="matrix(-0.8669 0.4985 -0.4985 -0.8669 1169.5913 263.0467)" fill="#3FA9F5" width="10.3" height="20.6"/>
<rect x="561.9" y="249.7" transform="matrix(-0.4498 -0.8932 0.8932 -0.4498 589.8504 883.4142)" fill="#FF931E" width="10.3" height="20.6"/>
<rect x="606.9" y="287.6" transform="matrix(-0.6891 -0.7247 0.7247 -0.6891 817.9839 946.806)" fill="#FF1D25" width="10.3" height="20.6"/>
<rect x="633" y="275.6" transform="matrix(-0.8669 0.4985 -0.4985 -0.8669 1333.9424 215.6137)" fill="#3FA9F5" width="10.3" height="20.6"/>
<rect x="650.4" y="247.9" transform="matrix(-0.4498 -0.8932 0.8932 -0.4498 719.7498 959.8953)" fill="#00AE76" width="10.3" height="20.6"/>
<rect x="572" y="221.6" transform="matrix(6.874317e-02 -0.9976 0.9976 6.874317e-02 306.1265 791.7474)" fill="#FF1D25" width="10.3" height="20.6"/>
<rect x="598.5" y="232.7" transform="matrix(-0.9532 -0.3024 0.3024 -0.9532 1105.5674 657.1691)" fill="#3FA9F5" width="10.3" height="20.6"/>
<rect x="630.6" y="226.8" transform="matrix(0.3547 -0.935 0.935 0.3547 188.5795 747.4813)" fill="#FF931E" width="10.3" height="20.6"/>
<rect x="539.4" y="205.6" transform="matrix(-0.6891 -0.7247 0.7247 -0.6891 763.3112 759.2885)" fill="#BDCCD4" width="10.3" height="20.6"/>
<rect x="565.5" y="193.6" transform="matrix(-0.8669 0.4985 -0.4985 -0.8669 1166.9209 96.1519)" fill="#3FA9F5" width="10.3" height="20.6"/>
<rect x="534.3" y="181.7" transform="matrix(-0.4498 -0.8932 0.8932 -0.4498 610.5284 760.1715)" fill="#FF931E" width="10.3" height="20.6"/>
<rect x="830.6" y="228" transform="matrix(0.3547 -0.935 0.935 0.3547 316.5186 935.2703)" fill="#FF931E" width="10.3" height="20.6"/>
<rect x="508.6" y="464.7" transform="matrix(-0.8242 -0.5663 0.5663 -0.8242 668.2109 1157.4978)" fill="#FF7BAC" width="10.3" height="20.6"/>
<rect x="531.7" y="447.5" transform="matrix(-0.7449 0.6671 -0.6671 -0.7449 1242.1714 440.7805)" fill="#3FA9F5" width="10.3" height="20.6"/>
<rect x="542.9" y="416.9" transform="matrix(-0.6249 -0.7807 0.7807 -0.6249 557.0712 1122.0348)" fill="#FF931E" width="10.3" height="20.6"/>
<rect x="514.4" y="398" transform="matrix(-0.4498 -0.8932 0.8932 -0.4498 388.5009 1055.9668)" fill="#FF931E" width="10.3" height="20.6"/>
<rect x="559.4" y="435.9" transform="matrix(-0.6891 -0.7247 0.7247 -0.6891 630.2469 1162.8613)" fill="#FF1D25" width="10.3" height="20.6"/>
<rect x="585.5" y="423.9" transform="matrix(-0.8669 0.4985 -0.4985 -0.8669 1319.1531 516.1609)" fill="#3FA9F5" width="10.3" height="20.6"/>
<rect x="602.9" y="396.2" transform="matrix(-0.4498 -0.8932 0.8932 -0.4498 518.4003 1132.448)" fill="#FF931E" width="10.3" height="20.6"/>
<rect x="524.5" y="369.9" transform="matrix(6.874317e-02 -0.9976 0.9976 6.874317e-02 113.9226 882.4418)" fill="#FF1D25" width="10.3" height="20.6"/>
<rect x="551" y="381" transform="matrix(-0.9532 -0.3024 0.3024 -0.9532 967.9072 932.457)" fill="#3FA9F5" width="10.3" height="20.6"/>
<rect x="583.1" y="375.1" transform="matrix(0.3547 -0.935 0.935 0.3547 19.2535 798.75)" fill="#FF931E" width="10.3" height="20.6"/>
<rect x="550.3" y="524.8" transform="matrix(-0.6249 -0.7807 0.7807 -0.6249 484.7806 1303.1747)" fill="#7AC943" width="10.3" height="20.6"/>
<rect x="510.1" y="530" transform="matrix(-0.8669 0.4985 -0.4985 -0.8669 1231.3147 751.7739)" fill="#3FA9F5" width="10.3" height="20.6"/>
<rect x="521.7" y="505.9" transform="matrix(-0.4498 -0.8932 0.8932 -0.4498 302.7839 1219.0332)" fill="#7AC943" width="10.3" height="20.6"/>
<rect x="566.8" y="543.9" transform="matrix(-0.6891 -0.7247 0.7247 -0.6891 564.4809 1350.5204)" fill="#FF1D25" width="10.3" height="20.6"/>
<rect x="592.9" y="531.8" transform="matrix(-0.8669 0.4985 -0.4985 -0.8669 1386.7234 713.9914)" fill="#BDCCD4" width="10.3" height="20.6"/>
<rect x="610.3" y="504.2" transform="matrix(-0.4498 -0.8932 0.8932 -0.4498 432.6833 1295.5143)" fill="#FF931E" width="10.3" height="20.6"/>
<rect x="531.8" y="477.8" transform="matrix(6.874317e-02 -0.9976 0.9976 6.874317e-02 13.1059 990.313)" fill="#FF1D25" width="10.3" height="20.6"/>
<rect x="558.3" y="488.9" transform="matrix(-0.9532 -0.3024 0.3024 -0.9532 949.6697 1145.5077)" fill="#3FA9F5" width="10.3" height="20.6"/>
<rect x="590.5" y="483.1" transform="matrix(0.3547 -0.935 0.935 0.3547 -76.9095 875.2974)" fill="#FF931E" width="10.3" height="20.6"/>
<rect x="684.2" y="528.6" transform="matrix(-0.6249 -0.7807 0.7807 -0.6249 699.3146 1413.8845)" fill="#FF931E" width="10.3" height="20.6"/>
<rect x="638.2" y="537.4" transform="matrix(-0.8669 0.4985 -0.4985 -0.8669 1474.1821 701.814)" fill="#3FA9F5" width="10.3" height="20.6"/>
<rect x="655.6" y="509.8" transform="matrix(-0.4498 -0.8932 0.8932 -0.4498 493.446 1344.1252)" fill="#FF931E" width="10.3" height="20.6"/>
<rect x="665.7" y="481.6" transform="matrix(6.874317e-02 -0.9976 0.9976 6.874317e-02 133.9611 1127.4133)" fill="#FF1D25" width="10.3" height="20.6"/>
<rect x="633.1" y="465.6" transform="matrix(-0.6891 -0.7247 0.7247 -0.6891 733.1536 1266.4532)" fill="#BDCCD4" width="10.3" height="20.6"/>
<rect x="659.2" y="453.6" transform="matrix(-0.8669 0.4985 -0.4985 -0.8669 1471.5117 534.9193)" fill="#3FA9F5" width="10.3" height="20.6"/>
<rect x="676.6" y="426" transform="matrix(-0.4498 -0.8932 0.8932 -0.4498 598.665 1241.3396)" fill="#FF931E" width="10.3" height="20.6"/>
<rect x="656.8" y="404.8" transform="matrix(0.3547 -0.935 0.935 0.3547 39.0087 886.8155)" fill="#FF931E" width="10.3" height="20.6"/>
<rect x="628" y="441.8" transform="matrix(-0.4498 -0.8932 0.8932 -0.4498 514.1241 1220.8826)" fill="#FF931E" width="10.3" height="20.6"/>
<rect x="608.2" y="420.7" transform="matrix(0.3547 -0.935 0.935 0.3547 -7.1213 851.6057)" fill="#FF931E" width="10.3" height="20.6"/>
<rect x="723.9" y="539" transform="matrix(-0.4498 -0.8932 0.8932 -0.4498 566.3146 1447.4662)" fill="#FF7BAC" width="10.3" height="20.6"/>
<rect x="442.8" y="337.4" transform="matrix(-0.4498 -0.8932 0.8932 -0.4498 338.9015 904.113)" fill="#FF931E" width="10.3" height="20.6"/>
<rect x="244.3" y="249.6" transform="matrix(-0.8669 0.4985 -0.4985 -0.8669 595.2127 360.9352)" fill="#3FA9F5" width="10.3" height="20.6"/>
<rect x="261.6" y="222" transform="matrix(-0.4498 -0.8932 0.8932 -0.4498 179.3281 575.0148)" fill="#FF931E" width="10.3" height="20.6"/>
<rect x="241.9" y="200.8" transform="matrix(0.3547 -0.935 0.935 0.3547 -38.0207 367.2268)" fill="#FF931E" width="10.3" height="20.6"/>
<rect x="251.6" y="357.6" transform="matrix(-0.8669 0.4985 -0.4985 -0.8669 662.7831 558.7657)" fill="#BDCCD4" width="10.3" height="20.6"/>
<rect x="269" y="329.9" transform="matrix(-0.4498 -0.8932 0.8932 -0.4498 93.6112 738.0811)" fill="#FF931E" width="10.3" height="20.6"/>
<rect x="249.2" y="308.8" transform="matrix(0.3547 -0.935 0.935 0.3547 -134.1837 443.7742)" fill="#FF931E" width="10.3" height="20.6"/>
<rect x="342.9" y="354.4" transform="matrix(-0.6249 -0.7807 0.7807 -0.6249 280.8885 864.2988)" fill="#FF931E" width="10.3" height="20.6"/>
<rect x="314.4" y="335.5" transform="matrix(-0.4498 -0.8932 0.8932 -0.4498 154.3739 786.6921)" fill="#FF931E" width="10.3" height="20.6"/>
<rect x="324.5" y="307.4" transform="matrix(6.874317e-02 -0.9976 0.9976 6.874317e-02 -9.9674 624.685)" fill="#FF1D25" width="10.3" height="20.6"/>
<rect x="291.8" y="291.4" transform="matrix(-0.6891 -0.7247 0.7247 -0.6891 283.041 724.8052)" fill="#BDCCD4" width="10.3" height="20.6"/>
<rect x="317.9" y="279.4" transform="matrix(-0.8669 0.4985 -0.4985 -0.8669 747.5714 379.6935)" fill="#3FA9F5" width="10.3" height="20.6"/>
<rect x="335.3" y="251.7" transform="matrix(-0.4498 -0.8932 0.8932 -0.4498 259.5929 683.9064)" fill="#FF931E" width="10.3" height="20.6"/>
<rect x="315.5" y="230.6" transform="matrix(0.3547 -0.935 0.935 0.3547 -18.2655 455.2923)" fill="#FF931E" width="10.3" height="20.6"/>
<rect x="286.7" y="267.5" transform="matrix(-0.4498 -0.8932 0.8932 -0.4498 175.0519 663.4493)" fill="#FF931E" width="10.3" height="20.6"/>
<rect x="267" y="246.4" transform="matrix(0.3547 -0.935 0.935 0.3547 -64.3955 420.0825)" fill="#FF931E" width="10.3" height="20.6"/>
<rect x="445.5" y="143.7" transform="matrix(-0.8242 -0.5663 0.5663 -0.8242 734.8149 536.1387)" fill="#FF1D25" width="10.3" height="20.6"/>
<rect x="475.9" y="91.7" transform="matrix(-0.7449 0.6671 -0.6671 -0.7449 907.4572 -142.8769)" fill="#3FA9F5" width="10.3" height="20.6"/>
<rect x="407.8" y="116.7" transform="matrix(-0.6891 -0.7247 0.7247 -0.6891 605.4202 513.7191)" fill="#FF1D25" width="10.3" height="20.6"/>
<rect x="433.8" y="104.7" transform="matrix(-0.8669 0.4985 -0.4985 -0.8669 876.8715 -4.2267)" fill="#3FA9F5" width="10.3" height="20.6"/>
<rect x="458.6" y="105.3" transform="matrix(-0.8242 -0.5663 0.5663 -0.8242 780.532 473.4757)" fill="#FF1D25" width="10.3" height="20.6"/>
<rect x="420.9" y="78.3" transform="matrix(-0.6891 -0.7247 0.7247 -0.6891 655.4478 458.3255)" fill="#FF1D25" width="10.3" height="20.6"/>
<rect x="447" y="66.2" transform="matrix(-0.8669 0.4985 -0.4985 -0.8669 882.2291 -82.5138)" fill="#3FA9F5" width="10.3" height="20.6"/>
<rect x="503.6" y="80.1" transform="matrix(-0.6891 -0.7247 0.7247 -0.6891 793.8728 521.4292)" fill="#FF7BAC" width="10.3" height="20.6"/>
<rect x="529.7" y="68.1" transform="matrix(-0.8669 0.4985 -0.4985 -0.8669 1037.6377 -120.2962)" fill="#3FA9F5" width="10.3" height="20.6"/>
<rect x="472.3" y="209.6" transform="matrix(-0.8242 -0.5663 0.5663 -0.8242 746.3463 671.4722)" fill="#FF1D25" width="10.3" height="20.6"/>
<rect x="495.3" y="192.4" transform="matrix(-0.7449 0.6671 -0.6671 -0.7449 1008.4764 19.847)" fill="#3FA9F5" width="10.3" height="20.6"/>
<rect x="506.6" y="161.7" transform="matrix(-0.6249 -0.7807 0.7807 -0.6249 697.1548 679.0583)" fill="#FF931E" width="10.3" height="20.6"/>
<rect x="434.5" y="182.6" transform="matrix(-0.6891 -0.7247 0.7247 -0.6891 602.9055 644.3937)" fill="#FF1D25" width="10.3" height="20.6"/>
<rect x="460.6" y="170.5" transform="matrix(-0.8669 0.4985 -0.4985 -0.8669 959.6954 105.41)" fill="#3FA9F5" width="10.3" height="20.6"/>
<rect x="478" y="142.9" transform="matrix(-0.4498 -0.8932 0.8932 -0.4498 563.6413 653.582)" fill="#FF931E" width="10.3" height="20.6"/>
<rect x="523" y="180.8" transform="matrix(-0.6891 -0.7247 0.7247 -0.6891 753.6909 705.5375)" fill="#FF7BAC" width="10.3" height="20.6"/>
<rect x="549.1" y="168.8" transform="matrix(-0.8669 0.4985 -0.4985 -0.8669 1124.0464 57.977)" fill="#3FA9F5" width="10.3" height="20.6"/>
<rect x="566.5" y="141.1" transform="matrix(-0.4498 -0.8932 0.8932 -0.4498 693.5407 730.0632)" fill="#FF931E" width="10.3" height="20.6"/>
<rect x="488.1" y="114.7" transform="matrix(6.874317e-02 -0.9976 0.9976 6.874317e-02 334.5833 608.5469)" fill="#FF1D25" width="10.3" height="20.6"/>
<rect x="514.6" y="125.9" transform="matrix(-0.9532 -0.3024 0.3024 -0.9532 973.9975 423.1161)" fill="#3FA9F5" width="10.3" height="20.6"/>
<rect x="546.7" y="120" transform="matrix(0.3547 -0.935 0.935 0.3547 234.3328 600.0859)" fill="#FF931E" width="10.3" height="20.6"/>
<rect x="586.7" y="112.7" transform="matrix(-0.8242 -0.5663 0.5663 -0.8242 1009.9989 559.6099)" fill="#FF7BAC" width="10.3" height="20.6"/>
<rect x="609.8" y="95.5" transform="matrix(-0.7449 0.6671 -0.6671 -0.7449 1143.585 -225.5262)" fill="#3FA9F5" width="10.3" height="20.6"/>
<rect x="549" y="85.7" transform="matrix(-0.6891 -0.7247 0.7247 -0.6891 866.433 563.7358)" fill="#FF1D25" width="10.3" height="20.6"/>
<rect x="575.1" y="73.7" transform="matrix(-0.8669 0.4985 -0.4985 -0.8669 1125.0964 -132.4737)" fill="#3FA9F5" width="10.3" height="20.6"/>
<rect x="637.5" y="83.9" transform="matrix(-0.6891 -0.7247 0.7247 -0.6891 1017.2183 624.8796)" fill="#FF1D25" width="10.3" height="20.6"/>
<rect x="663.6" y="71.9" transform="matrix(-0.8669 0.4985 -0.4985 -0.8669 1289.4474 -179.9066)" fill="#3FA9F5" width="10.3" height="20.6"/>
<rect x="586.7" y="255.4" transform="matrix(-0.8242 -0.5663 0.5663 -0.8242 929.1636 819.9814)" fill="#FF1D25" width="10.3" height="20.6"/>
<rect x="617.1" y="203.5" transform="matrix(-0.7449 0.6671 -0.6671 -0.7449 1228.458 -42.1023)" fill="#3FA9F5" width="10.3" height="20.6"/>
<rect x="628.4" y="172.8" transform="matrix(-0.6249 -0.7807 0.7807 -0.6249 886.4702 792.1779)" fill="#7AC943" width="10.3" height="20.6"/>
<rect x="549" y="228.4" transform="matrix(-0.6891 -0.7247 0.7247 -0.6891 762.9996 804.8286)" fill="#FF1D25" width="10.3" height="20.6"/>
<rect x="575.1" y="216.4" transform="matrix(-0.8669 0.4985 -0.4985 -0.8669 1196.2517 133.9933)" fill="#3FA9F5" width="10.3" height="20.6"/>
<rect x="599.8" y="217" transform="matrix(-0.8242 -0.5663 0.5663 -0.8242 974.8807 757.3183)" fill="#FF1D25" width="10.3" height="20.6"/>
<rect x="562.1" y="190" transform="matrix(-0.6891 -0.7247 0.7247 -0.6891 813.0272 749.4349)" fill="#FF1D25" width="10.3" height="20.6"/>
<rect x="588.2" y="178" transform="matrix(-0.8669 0.4985 -0.4985 -0.8669 1201.6093 55.7062)" fill="#3FA9F5" width="10.3" height="20.6"/>
<rect x="599.8" y="153.9" transform="matrix(-0.4498 -0.8932 0.8932 -0.4498 730.3751 778.4594)" fill="#7AC943" width="10.3" height="20.6"/>
<rect x="644.9" y="191.9" transform="matrix(-0.6891 -0.7247 0.7247 -0.6891 951.4523 812.5386)" fill="#FF1D25" width="10.3" height="20.6"/>
<rect x="671" y="179.8" transform="matrix(-0.8669 0.4985 -0.4985 -0.8669 1357.0178 17.9239)" fill="#BDCCD4" width="10.3" height="20.6"/>
<rect x="688.3" y="152.2" transform="matrix(-0.4498 -0.8932 0.8932 -0.4498 860.2744 854.9405)" fill="#FF931E" width="10.3" height="20.6"/>
<rect x="609.9" y="125.8" transform="matrix(6.874317e-02 -0.9976 0.9976 6.874317e-02 436.9889 740.4094)" fill="#FF1D25" width="10.3" height="20.6"/>
<rect x="636.4" y="136.9" transform="matrix(-0.9532 -0.3024 0.3024 -0.9532 1208.6121 481.5927)" fill="#3FA9F5" width="10.3" height="20.6"/>
<rect x="668.6" y="131.1" transform="matrix(0.3547 -0.935 0.935 0.3547 302.597 721.1486)" fill="#FF931E" width="10.3" height="20.6"/>
<rect x="613.5" y="321.3" transform="matrix(-0.8242 -0.5663 0.5663 -0.8242 940.6951 955.3149)" fill="#FF1D25" width="10.3" height="20.6"/>
<rect x="636.5" y="304.2" transform="matrix(-0.7449 0.6671 -0.6671 -0.7449 1329.4772 120.6216)" fill="#3FA9F5" width="10.3" height="20.6"/>
<rect x="647.8" y="273.5" transform="matrix(-0.6249 -0.7807 0.7807 -0.6249 839.3984 970.9081)" fill="#FF7BAC" width="10.3" height="20.6"/>
<rect x="575.8" y="294.3" transform="matrix(-0.6891 -0.7247 0.7247 -0.6891 760.485 935.5032)" fill="#FF1D25" width="10.3" height="20.6"/>
<rect x="601.9" y="282.3" transform="matrix(-0.8669 0.4985 -0.4985 -0.8669 1279.0754 243.6301)" fill="#3FA9F5" width="10.3" height="20.6"/>
<rect x="619.2" y="254.6" transform="matrix(-0.4498 -0.8932 0.8932 -0.4498 668.5865 941.7404)" fill="#FF931E" width="10.3" height="20.6"/>
<rect x="664.3" y="292.5" transform="matrix(-0.6891 -0.7247 0.7247 -0.6891 911.2703 996.6469)" fill="#FF1D25" width="10.3" height="20.6"/>
<rect x="690.4" y="280.5" transform="matrix(-0.8669 0.4985 -0.4985 -0.8669 1443.4265 196.1971)" fill="#3FA9F5" width="10.3" height="20.6"/>
<rect x="707.7" y="252.8" transform="matrix(-0.4498 -0.8932 0.8932 -0.4498 798.486 1018.2216)" fill="#FF931E" width="10.3" height="20.6"/>
<rect x="629.3" y="226.5" transform="matrix(6.874317e-02 -0.9976 0.9976 6.874317e-02 354.6217 853.5184)" fill="#FF1D25" width="10.3" height="20.6"/>
<rect x="655.8" y="237.6" transform="matrix(-0.9532 -0.3024 0.3024 -0.9532 1216.0685 684.0941)" fill="#3FA9F5" width="10.3" height="20.6"/>
<rect x="688" y="231.7" transform="matrix(0.3547 -0.935 0.935 0.3547 220.9887 804.257)" fill="#FF931E" width="10.3" height="20.6"/>
<rect x="727.9" y="224.5" transform="matrix(-0.8242 -0.5663 0.5663 -0.8242 1204.3477 843.4525)" fill="#FF1D25" width="10.3" height="20.6"/>
<rect x="751" y="207.3" transform="matrix(-0.7449 0.6671 -0.6671 -0.7449 1464.5857 -124.7516)" fill="#3FA9F5" width="10.3" height="20.6"/>
<rect x="762.3" y="176.6" transform="matrix(-0.6249 -0.7807 0.7807 -0.6249 1101.0043 902.8877)" fill="#FF931E" width="10.3" height="20.6"/>
<rect x="690.2" y="197.5" transform="matrix(-0.6891 -0.7247 0.7247 -0.6891 1024.0125 854.8452)" fill="#FF1D25" width="10.3" height="20.6"/>
<rect x="716.3" y="185.4" transform="matrix(-0.8669 0.4985 -0.4985 -0.8669 1444.4766 5.7464)" fill="#3FA9F5" width="10.3" height="20.6"/>
<rect x="733.7" y="157.8" transform="matrix(-0.4498 -0.8932 0.8932 -0.4498 921.0372 903.5515)" fill="#FF931E" width="10.3" height="20.6"/>
<rect x="778.7" y="195.7" transform="matrix(-0.6891 -0.7247 0.7247 -0.6891 1174.7977 915.989)" fill="#FF1D25" width="10.3" height="20.6"/>
<rect x="804.8" y="183.7" transform="matrix(-0.8669 0.4985 -0.4985 -0.8669 1608.8276 -41.6866)" fill="#3FA9F5" width="10.3" height="20.6"/>
<rect x="822.2" y="156" transform="matrix(-0.4498 -0.8932 0.8932 -0.4498 1050.9366 980.0325)" fill="#00AE76" width="10.3" height="20.6"/>
<rect x="743.8" y="129.6" transform="matrix(6.874317e-02 -0.9976 0.9976 6.874317e-02 557.8441 877.5097)" fill="#FF1D25" width="10.3" height="20.6"/>
<rect x="770.3" y="140.8" transform="matrix(-0.9532 -0.3024 0.3024 -0.9532 1468.9204 529.5199)" fill="#3FA9F5" width="10.3" height="20.6"/>
<rect x="802.4" y="134.9" transform="matrix(0.3547 -0.935 0.935 0.3547 385.4159 848.7723)" fill="#FF931E" width="10.3" height="20.6"/>
<rect x="711.2" y="113.6" transform="matrix(-0.6891 -0.7247 0.7247 -0.6891 1120.125 728.4715)" fill="#BDCCD4" width="10.3" height="20.6"/>
<rect x="737.3" y="101.6" transform="matrix(-0.8669 0.4985 -0.4985 -0.8669 1441.8062 -161.1483)" fill="#3FA9F5" width="10.3" height="20.6"/>
<rect x="754.6" y="74" transform="matrix(-0.4498 -0.8932 0.8932 -0.4498 1026.2561 800.7658)" fill="#FF931E" width="10.3" height="20.6"/>
<rect x="706.1" y="89.8" transform="matrix(-0.4498 -0.8932 0.8932 -0.4498 941.7152 780.3088)" fill="#FF931E" width="10.3" height="20.6"/>
<rect x="270.6" y="188" transform="matrix(-0.8242 -0.5663 0.5663 -0.8242 390.6533 517.9354)" fill="#FF1D25" width="10.3" height="20.6"/>
<rect x="301" y="136.1" transform="matrix(-0.7449 0.6671 -0.6671 -0.7449 631.8283 51.1516)" fill="#3FA9F5" width="10.3" height="20.6"/>
<rect x="312.3" y="105.4" transform="matrix(-0.6249 -0.7807 0.7807 -0.6249 425.4208 435.7945)" fill="#7AC943" width="10.3" height="20.6"/>
<rect x="283.7" y="149.6" transform="matrix(-0.8242 -0.5663 0.5663 -0.8242 436.3705 455.2723)" fill="#FF1D25" width="10.3" height="20.6"/>
<rect x="272.1" y="110.5" transform="matrix(-0.8669 0.4985 -0.4985 -0.8669 577.7953 87.4253)" fill="#3FA9F5" width="10.3" height="20.6"/>
<rect x="283.7" y="86.5" transform="matrix(-0.4498 -0.8932 0.8932 -0.4498 332.2711 398.3402)" fill="#7AC943" width="10.3" height="20.6"/>
<rect x="328.7" y="124.4" transform="matrix(-0.6891 -0.7247 0.7247 -0.6891 466.3181 469.5475)" fill="#FF1D25" width="10.3" height="20.6"/>
<rect x="354.8" y="112.4" transform="matrix(-0.8669 0.4985 -0.4985 -0.8669 733.204 49.643)" fill="#BDCCD4" width="10.3" height="20.6"/>
<rect x="372.2" y="84.7" transform="matrix(-0.4498 -0.8932 0.8932 -0.4498 462.1705 474.8214)" fill="#FF931E" width="10.3" height="20.6"/>
<rect x="320.3" y="69.5" transform="matrix(-0.9532 -0.3024 0.3024 -0.9532 611.5134 254.3012)" fill="#3FA9F5" width="10.3" height="20.6"/>
<rect x="331.7" y="206.1" transform="matrix(-0.6249 -0.7807 0.7807 -0.6249 378.3488 614.5246)" fill="#FF7BAC" width="10.3" height="20.6"/>
<rect x="303.1" y="187.2" transform="matrix(-0.4498 -0.8932 0.8932 -0.4498 270.4825 561.6213)" fill="#FF931E" width="10.3" height="20.6"/>
<rect x="391.6" y="185.4" transform="matrix(-0.4498 -0.8932 0.8932 -0.4498 400.382 638.1024)" fill="#FF931E" width="10.3" height="20.6"/>
<rect x="313.2" y="159.1" transform="matrix(6.874317e-02 -0.9976 0.9976 6.874317e-02 127.4824 475.3301)" fill="#FF1D25" width="10.3" height="20.6"/>
<rect x="339.7" y="170.2" transform="matrix(-0.9532 -0.3024 0.3024 -0.9532 618.9697 456.8026)" fill="#3FA9F5" width="10.3" height="20.6"/>
<rect x="371.8" y="164.3" transform="matrix(0.3547 -0.935 0.935 0.3547 80.019 465.1526)" fill="#FF931E" width="10.3" height="20.6"/>
<rect x="411.8" y="157" transform="matrix(-0.8242 -0.5663 0.5663 -0.8242 665.8373 541.4066)" fill="#FF1D25" width="10.3" height="20.6"/>
<rect x="434.8" y="139.9" transform="matrix(-0.7449 0.6671 -0.6671 -0.7449 867.9561 -31.4978)" fill="#3FA9F5" width="10.3" height="20.6"/>
<rect x="446.1" y="109.2" transform="matrix(-0.6249 -0.7807 0.7807 -0.6249 639.9548 546.5043)" fill="#FF931E" width="10.3" height="20.6"/>
<rect x="374.1" y="130" transform="matrix(-0.6891 -0.7247 0.7247 -0.6891 538.8782 511.8541)" fill="#FF1D25" width="10.3" height="20.6"/>
<rect x="400.2" y="118" transform="matrix(-0.8669 0.4985 -0.4985 -0.8669 820.6627 37.4655)" fill="#3FA9F5" width="10.3" height="20.6"/>
<rect x="417.5" y="90.3" transform="matrix(-0.4498 -0.8932 0.8932 -0.4498 522.9333 523.4323)" fill="#FF931E" width="10.3" height="20.6"/>
<rect x="462.6" y="128.3" transform="matrix(-0.6891 -0.7247 0.7247 -0.6891 689.6636 572.9979)" fill="#FF1D25" width="10.3" height="20.6"/>
<rect x="488.7" y="116.2" transform="matrix(-0.8669 0.4985 -0.4985 -0.8669 985.0137 -9.9675)" fill="#3FA9F5" width="10.3" height="20.6"/>
<rect x="506.1" y="88.6" transform="matrix(-0.4498 -0.8932 0.8932 -0.4498 652.8327 599.9135)" fill="#00AE76" width="10.3" height="20.6"/>
<rect x="454.1" y="73.3" transform="matrix(-0.9532 -0.3024 0.3024 -0.9532 871.8218 302.2284)" fill="#3FA9F5" width="10.3" height="20.6"/>
<rect x="364.3" y="305.3" transform="matrix(-0.8242 -0.5663 0.5663 -0.8242 495.1609 785.0161)" fill="#FF7BAC" width="10.3" height="20.6"/>
<rect x="387.3" y="288.2" transform="matrix(-0.7449 0.6671 -0.6671 -0.7449 883.9702 258.9775)" fill="#3FA9F5" width="10.3" height="20.6"/>
<rect x="398.6" y="257.5" transform="matrix(-0.6249 -0.7807 0.7807 -0.6249 446.9564 750.3707)" fill="#FF931E" width="10.3" height="20.6"/>
<rect x="370" y="238.6" transform="matrix(-0.4498 -0.8932 0.8932 -0.4498 321.5837 695.985)" fill="#FF931E" width="10.3" height="20.6"/>
<rect x="415.1" y="276.5" transform="matrix(-0.6891 -0.7247 0.7247 -0.6891 501.9267 789.0532)" fill="#FF1D25" width="10.3" height="20.6"/>
<rect x="441.2" y="264.5" transform="matrix(-0.8669 0.4985 -0.4985 -0.8669 970.2244 290.5798)" fill="#3FA9F5" width="10.3" height="20.6"/>
<rect x="458.5" y="236.9" transform="matrix(-0.4498 -0.8932 0.8932 -0.4498 451.4832 772.4661)" fill="#FF931E" width="10.3" height="20.6"/>
<rect x="380.1" y="210.5" transform="matrix(6.874317e-02 -0.9976 0.9976 6.874317e-02 138.5009 590.0157)" fill="#FF1D25" width="10.3" height="20.6"/>
<rect x="406.6" y="221.6" transform="matrix(-0.9532 -0.3024 0.3024 -0.9532 734.1616 577.5164)" fill="#3FA9F5" width="10.3" height="20.6"/>
<rect x="438.8" y="215.7" transform="matrix(0.3547 -0.935 0.935 0.3547 75.1201 560.9366)" fill="#FF931E" width="10.3" height="20.6"/>
<rect x="377.4" y="346.6" transform="matrix(-0.4498 -0.8932 0.8932 -0.4498 235.8668 859.0513)" fill="#7AC943" width="10.3" height="20.6"/>
<rect x="465.9" y="344.8" transform="matrix(-0.4498 -0.8932 0.8932 -0.4498 365.7662 935.5324)" fill="#FF931E" width="10.3" height="20.6"/>
<rect x="387.5" y="318.4" transform="matrix(6.874317e-02 -0.9976 0.9976 6.874317e-02 37.6842 697.887)" fill="#FF1D25" width="10.3" height="20.6"/>
<rect x="414" y="329.6" transform="matrix(-0.9532 -0.3024 0.3024 -0.9532 715.9241 790.5671)" fill="#3FA9F5" width="10.3" height="20.6"/>
<rect x="446.1" y="323.7" transform="matrix(0.3547 -0.935 0.935 0.3547 -21.0429 637.484)" fill="#FF931E" width="10.3" height="20.6"/>
<rect x="511.3" y="350.4" transform="matrix(-0.4498 -0.8932 0.8932 -0.4498 426.529 984.1434)" fill="#FF931E" width="10.3" height="20.6"/>
<rect x="521.4" y="322.3" transform="matrix(6.874317e-02 -0.9976 0.9976 6.874317e-02 158.5394 834.9872)" fill="#FF1D25" width="10.3" height="20.6"/>
<rect x="488.7" y="306.3" transform="matrix(-0.6891 -0.7247 0.7247 -0.6891 604.8334 892.6451)" fill="#BDCCD4" width="10.3" height="20.6"/>
<rect x="514.8" y="294.2" transform="matrix(-0.8669 0.4985 -0.4985 -0.8669 1122.5831 309.3381)" fill="#3FA9F5" width="10.3" height="20.6"/>
<rect x="532.2" y="266.6" transform="matrix(-0.4498 -0.8932 0.8932 -0.4498 531.7479 881.3577)" fill="#FF931E" width="10.3" height="20.6"/>
<rect x="512.4" y="245.5" transform="matrix(0.3547 -0.935 0.935 0.3547 94.8754 649.0021)" fill="#FF931E" width="10.3" height="20.6"/>
<rect x="483.6" y="282.4" transform="matrix(-0.4498 -0.8932 0.8932 -0.4498 447.2069 860.9007)" fill="#FF931E" width="10.3" height="20.6"/>
<rect x="463.9" y="261.3" transform="matrix(0.3547 -0.935 0.935 0.3547 48.7454 613.7924)" fill="#FF931E" width="10.3" height="20.6"/>
<rect x="589.6" y="351.5" transform="matrix(6.874317e-02 -0.9976 0.9976 6.874317e-02 192.9582 930.308)" fill="#FF1D25" width="10.3" height="20.6"/>
<rect x="616.1" y="362.6" transform="matrix(-0.9532 -0.3024 0.3024 -0.9532 1100.7347 916.2162)" fill="#3FA9F5" width="10.3" height="20.6"/>
<rect x="648.3" y="356.7" transform="matrix(0.3547 -0.935 0.935 0.3547 78.5062 847.796)" fill="#FF931E" width="10.3" height="20.6"/>
<rect x="298.4" y="178" transform="matrix(-0.4498 -0.8932 0.8932 -0.4498 271.9844 544.1311)" fill="#FF931E" width="10.3" height="20.6"/>
<rect x="723.5" y="355.3" transform="matrix(6.874317e-02 -0.9976 0.9976 6.874317e-02 313.8134 1067.4083)" fill="#FF1D25" width="10.3" height="20.6"/>
</svg>
