<?xml version="1.0" encoding="utf-8"?>
<!-- Generator: Adobe Illustrator 18.0.0, SVG Export Plug-In . SVG Version: 6.00 Build 0)  -->
<!DOCTYPE svg PUBLIC "-//W3C//DTD SVG 1.1//EN" "http://www.w3.org/Graphics/SVG/1.1/DTD/svg11.dtd">
<svg version="1.1" id="Layer_1" xmlns="http://www.w3.org/2000/svg" xmlns:xlink="http://www.w3.org/1999/xlink" x="0px" y="0px"
	 viewBox="0 0 529.7 738" enable-background="new 0 0 529.7 738" xml:space="preserve">
<path fill="#1D1E1E" d="M227.4,1544C227.4,1544,227.4,1544,227.4,1544c0,0-0.6,0-1.7,0H227.4z"/>
<path fill="#1D1E1E" d="M387.4,1544C387.4,1544,387.4,1544,387.4,1544c0,0-0.6,0-1.7,0H387.4z"/>
<path fill="#CE9287" d="M204.4,334.8c0,0,2,34.3-6.2,41.8c-8.2,7.5,41.1,18,68.2,16.5c27.1-1.5,42.3-18,42.3-18l-4.6-54.3
	L204.4,334.8z"/>
<polygon fill="#666666" points="173.4,241.5 158.4,230.6 154.9,203 150.4,203 150.4,198 155.9,182.5 152.9,178 154.4,171 161.9,152 
	173.4,134.5 173.4,127 186.4,120 186.4,114 200.4,114 212.4,114 220.9,105.5 234.6,107.5 244.5,105.5 250.2,109.5 261.4,108 
	261.4,113 280.7,116.5 285.9,125 296.4,125 300.4,131 308.7,137 313.4,146 319.9,157.5 324.4,166.5 319.9,198 324.4,221.5 
	319.9,243.7 175.9,241.3 "/>
<path fill="#CE9287" d="M198.2,320.5l-18.8-26.1c0,0-6-15.9-6-36.9s0-31.5,0-31.5s-5.5-38.5-4-40.5s8.3-49.5,42.9-43.5
	s41.2,3.5,41.2,3.5s16.9-6,32.4,8.5s27.5,45,27.5,52s2.5,27.7,2.5,27.7l4,16.3c0,0,0.7,46.7-11.2,61.3
	C296.9,326,266,352.5,253.5,347C240.9,341.5,198.2,320.5,198.2,320.5z"/>
<path fill="#D6AC7B" d="M213.7,171.7L213.7,171.7z"/>
<path fill="#744845" d="M259,232.7c0,0-5.7-6.7,5-10c10.7-3.3,17-3.3,17-3.3s12-0.7,14.3,2.7c2.3,3.3,0,4,0,4s-22.3,1.4-25.3,2.7
	C267,230,260.5,236,259,232.7z"/>
<path fill="#FFFFFF" d="M266.4,243.7c0,0,6.3-10.3,25.3-4.7C291.7,239,284.7,249,266.4,243.7z"/>
<path fill="#666666" d="M201,327.7c0,0,7.7,23,30.7,29.3s34.3,3.3,47.3-5.7s21.7-23.7,21.7-23.7l8-16.3c0,0-16.7-3.3-19.3-1.7
	c-2.7,1.7-10.3,6.7-10.3,6.7s-8.7,14.3-27,12.3s-30.3-7-30.3-7l-5.7-4.3C216,317.3,189.7,316.7,201,327.7z"/>
<path fill="#744845" d="M234.4,233.7c0,0,1.7-7.7-4.7-7.2c-6.3,0.5-28.3,0-28.3,0s-10.3,1-11.3,3.6c-1,2.6,8.2,0,8.2,0l14.1,2.3
	L234.4,233.7z"/>
<path fill="#BB7E85" d="M231.7,293.1c0,0,3.7-0.9,6.3,0.1c2.7,1,6,6.4,11.7,6.1c5.7-0.3,11.7-5,11.7-5l8.3-4c0,0,0.3-3,0-5.3
	s-7-9.3-7-9.3s-11.2-6.7-11.9-18.7c-0.7-12-1.4-25.3-1.4-25.3V226c0,0,2.7,10.3,6,11.3c3.3,1,1.3,11.7,2.2,16.4s8.8,19.7,8.8,19.7
	l6,9c0,0,1.7,10-6,14.3c-7.7,4.3-10.7,4.7-10.7,4.7s-10.7,2.3-18.7-5.7L231.7,293.1z"/>
<path fill="#764448" d="M223.4,316.3c0,0,32.9,11.9,53.6-3.4C277,313,259,323,223.4,316.3z"/>
<path fill="#4C3A2E" d="M277,237.6c0,0-6.1,2.8,0,7.6l4-0.4c0,0,4.6-4.6,0-7.5L277,237.6z"/>
<circle cx="278.1" cy="241" r="2.6"/>
<path fill="#FFFFFF" d="M226.9,245.5c0,0-8-9.1-25.8-0.4C201.2,245.1,209.7,253.8,226.9,245.5z"/>
<path fill="#4C3A2E" d="M215.5,241.4c0,0,6.5,1.8,1.3,7.5l-4,0.3c0,0-5.3-3.7-1.3-7.4L215.5,241.4z"/>
<circle cx="215" cy="244.9" r="2.6"/>
<path fill="#666666" d="M203.5,318.5c0,0,9.8-12,13.3-13s21.1,0,21.1,0s26.5-0.2,32-3.9c5.5-3.7,19.5,8,19.5,8l-6.3,11.1
	c0,0,1-4.3-6.1-7.8s-24.9,0-24.9,0h-22.7l-13.3,4.3l-3.8,7.7L203.5,318.5z"/>
<path fill="#CE9287" d="M173.4,241.5c0,0-9.5-13.4-15-11c-5.5,2.4-6.5,9.3-5,13.1c1.5,3.8,9.7,16.3,9.7,16.3l6,20
	c0,0-0.7,12.5,4.3,12c5-0.5,5-0.5,5-0.5l6-5.5L173.4,241.5z"/>
<path fill="#1D1E1E" d="M500.5,565.5l-49.8,18.3l-25.2,9.3h-10.1c0,0,4,69.7,8.2,145H101.4c3.8-76.2,12.1-144.7,12.1-144.7
	s-0.9-0.2-2.5-0.6l-0.1,0c-9.3-2.4-42.1-10.8-66.9-18.8c-16.2-5.3-29-10.3-29.5-13.4C13,551.8,55,399.7,94,396
	c37-3.4,97.6-17.7,103.9-19.1c0.3-0.1,0.5-0.1,0.5-0.1s15.8,9.6,37.2,14.5c0,0,0,0,0.1,0c0,0,0,0,0,0c19.2,4.4,43,4.9,63.8-8.9
	c0,0,0,0,0,0c0.2-0.1,0.4-0.3,0.6-0.4c2.4-1.7,4.8-3.5,7.1-5.5c0.2-0.1,0.3-0.3,0.5-0.4c0.3-0.3,0.7-0.6,1-0.9
	c0,0,101.7-1.8,116.7,9.5s42,63.3,42,63.3l19.5,53.7L500.5,565.5z"/>
<g>
	<path fill="#FFFFFF" d="M162.1,539.9l3.4,1.8c4.1,2.1,5.3,5.4,3.3,9.4s-5.5,4.8-9.6,2.6l-13.3-7c-4.1-2.1-5.3-5.4-3.3-9.4
		c2.1-3.9,5.5-4.8,9.6-2.6l2.5,1.3l-2,3.8l-2.7-1.4c-1.8-1-2.9-0.5-3.6,0.8c-0.7,1.3-0.4,2.4,1.4,3.4l13.8,7.2
		c1.8,1,2.9,0.5,3.6-0.8c0.7-1.3,0.4-2.4-1.4-3.4l-3.6-1.9L162.1,539.9z"/>
	<path fill="#FFFFFF" d="M154.7,530.6c-3.7-2.8-4.4-6.3-1.7-9.8c2.7-3.6,6.2-3.9,9.9-1.2l12,9c3.7,2.8,4.4,6.3,1.7,9.8
		c-2.7,3.6-6.2,3.9-9.9,1.2L154.7,530.6z M169.7,536.1c1.7,1.2,2.8,1,3.7-0.2s0.8-2.4-0.9-3.6l-12.5-9.3c-1.7-1.2-2.8-1-3.7,0.2
		c-0.9,1.2-0.8,2.4,0.9,3.6L169.7,536.1z"/>
	<path fill="#FFFFFF" d="M166.2,515.9c-3.2-3.3-3.3-6.9-0.1-10c3.2-3.1,6.8-2.9,10,0.4l10.5,10.7c3.2,3.3,3.3,6.9,0.1,10
		c-3.2,3.1-6.8,2.9-10-0.4L166.2,515.9z M180.1,523.7c1.4,1.5,2.6,1.4,3.7,0.4s1.1-2.2-0.3-3.7l-10.9-11.1c-1.4-1.5-2.6-1.4-3.7-0.4
		s-1.1,2.2,0.3,3.7L180.1,523.7z"/>
	<path fill="#FFFFFF" d="M176,497.5l3.7-2.7l14.5,20l6-4.4l2.4,3.3l-9.7,7L176,497.5z"/>
	<path fill="#FFFFFF" d="M197,484l6.6-2.9c4.1-1.8,7.2-0.4,9.1,3.8l5.9,13.3c1.9,4.2,0.8,7.4-3.3,9.2l-6.6,2.9L197,484z
		 M202.8,485.9l8.3,18.9l2.3-1c1.3-0.6,1.8-1.6,1-3.5l-6-13.7c-0.8-1.9-1.9-2.2-3.2-1.6L202.8,485.9z"/>
	<path fill="#FFFFFF" d="M237.2,500.6l-4.4,1.1l-2.1-4.9l-5.4,1.4l0.5,5.3l-4,1l-2.7-29.1l6.4-1.7L237.2,500.6z M224.9,494.3
		l4.2-1.1l-5.7-13.6L224.9,494.3z"/>
	<path fill="#FFFFFF" d="M235.6,471.8l7.1-0.6c4.5-0.4,7,1.9,7.4,6.5l1.3,14.5c0.4,4.6-1.6,7.3-6.1,7.7l-7.1,0.6L235.6,471.8z
		 M240.5,475.5l1.8,20.5l2.5-0.2c1.4-0.1,2.2-0.9,2.1-3l-1.3-14.9c-0.2-2.1-1.1-2.7-2.5-2.6L240.5,475.5z"/>
	<path fill="#FFFFFF" d="M266.4,483.6l6.2,0.8l-0.5,4.1l-6.2-0.8l-1.1,8.4l7.8,1l-0.5,4.1l-12.3-1.6l3.7-28.6l12.3,1.6l-0.5,4.1
		l-7.8-1L266.4,483.6z"/>
	<path fill="#FFFFFF" d="M287.7,475.1c4.2,1.2,5.7,4.4,4.4,8.8l-0.2,0.9l-4.1-1.2l0.3-1.1c0.6-2,0-3-1.4-3.4c-1.4-0.4-2.4,0.1-3,2.1
		c-1.6,5.7,6.6,9.2,4.4,17.1c-1.3,4.4-4.2,6.3-8.5,5.1s-5.8-4.4-4.5-8.8l0.5-1.7l4.1,1.2l-0.6,2c-0.6,2,0.1,2.9,1.5,3.3
		c1.4,0.4,2.5-0.1,3-2.1c1.6-5.7-6.6-9.2-4.4-17.1C280.5,475.8,283.4,473.9,287.7,475.1z"/>
	<path fill="#FFFFFF" d="M298.2,478.8l12.8,5.7l-1.7,3.8l-4.3-1.9l-10.1,22.5l-4.1-1.9l10.1-22.5l-4.3-1.9L298.2,478.8z"/>
	<path fill="#FFFFFF" d="M304.1,508.8l-2.1,3.8l-3.8-2.1l2.1-3.8L304.1,508.8z"/>
	<path fill="#FFFFFF" d="M327.3,499.3c2.7,2.2,4.4,1.4,6.2,0.3l2.4,1.9l-18.3,22.3L314,521l13.9-17l-2.7-2.2L327.3,499.3z"/>
	<path fill="#FFFFFF" d="M335,532c-3.6,3.2-7.1,3.3-10.2-0.2c-3-3.3-2.5-6.8,0.9-9.9l0.6-0.5l2.9,3.2l-0.8,0.7
		c-1.5,1.4-1.5,2.6-0.6,3.6c1.1,1.2,2.3,1.4,4.3-0.5l3.9-3.5c-1.8,0.5-3.4,0.1-4.7-1.4c-2.2-2.5-1.6-5.3,1.6-8.1l3.9-3.5
		c3.4-3.1,7-3,10,0.3s2.6,6.9-0.8,10L335,532z M339.4,522.1l3.9-3.5c1.5-1.4,1.5-2.5,0.5-3.6c-1-1.1-2.1-1.3-3.7,0.1l-3.9,3.5
		c-1.5,1.4-1.5,2.6-0.6,3.6C336.7,523.3,337.8,523.4,339.4,522.1z"/>
	<path fill="#FFFFFF" d="M340.9,536.7l-2.3,1.4c-1.7,1.1-1.9,2.3-1.1,3.5s1.9,1.6,3.6,0.5l5.3-3.4c1.7-1.1,1.9-2.3,1.1-3.5
		c-0.8-1.2-1.9-1.6-3.7-0.4l-0.7,0.5l-2.3-3.6l14.5-8.3l6.4,10.1l-3.5,2.2l-4.2-6.6l-6,3.4c1.6,0,2.9,0.7,3.9,2.2
		c1.8,2.8,0.7,5.5-2.8,7.8l-5.4,3.5c-3.9,2.5-7.3,2-9.8-1.8c-2.4-3.7-1.4-7.1,2.5-9.6l2-1.3L340.9,536.7z"/>
	<path fill="#FFFFFF" d="M370.6,551.9l-3.6,1.6l-25.5,3.8l-1.8-4.2l25.3-3.8l-3.6-8.3l3.8-1.6L370.6,551.9z"/>
</g>
<g>
	<path fill="#F2F2F2" d="M215.5,580c1.7-1.8,3.4-3.6,5.2-5.5c0.6-0.6,0.6-1,0.1-1.6c-1.4-1.8-3.1-3.4-4.9-4.7
		c-1.1-0.8-2.4-1.6-3.9-1.7c-0.6,0-0.7-0.4-0.9-0.9c-0.7,0.1-1.4,0.2-2.1,0.2c-1.6,0-2-0.6-2.2-1.6c-1-0.5-2-0.5-3.1-0.6
		c-2.1-0.1-4.1,0.2-6.1,0.5c-1.6,0.2-3.1,0.8-4.6,1.5c-1.1,0.6-2.3,1-3.5,1.4c-0.3,0.1-0.6,0.1-0.9,0.1c-1.2-0.2-2.4-0.4-3.7-0.6
		c-0.3-0.1-0.6-0.2-1.2-0.4c1.6-0.9,3-1.7,4.4-2.5c0.4-0.2,0.8-0.3,1.1-0.5c0.2-0.1,0.3-0.4,0.6-0.7c-0.5-0.1-0.7-0.2-1.1-0.3
		c0.1-0.9,0.8-1,1.4-1.2c0.6-0.2,1.3-0.1,2-0.2c0.1-0.8,0.1-0.9-0.5-0.9c-0.4,0-0.8,0.2-1.2,0.4c-0.5,0.3-1.1,0.4-1.6,0.2
		c-0.8-1.4-0.5-2.8-0.4-4.2c0.1-0.8,0.6-1,1.3-0.9c1.2,0.3,2.4,0.5,3.6,0.8c0.1,0,0.1,0.1,0.3,0.1c0,0.2,0.1,0.5,0.2,0.8
		c0.2,0.3,0.3,0.7,0.6,0.9c0.7,0.8,1.4,1.5,2,2.3c0.4,0.5,0.6,0.7,1.2,0.5c0.4-0.1,0.8-0.1,1.3-0.1c0.3,0,0.6-0.1,1-0.2
		c-0.3-0.8-0.8-1.5-0.4-2.2c0.4-0.8,0.8-1.6,1.3-2.3c0.3-0.5,0.9-0.7,1.5-0.7c2.2,0.1,4.4,0.2,6.6,0.2c0.8,0,1.6,0,2.3,0
		c2,0,4,0,6.1,0c1.2,0,2.2,0.3,3.2,0.9c1.5,0.9,3,1.5,4.7,1.9c1.4,0.3,2.8,0.9,4.2,1.2c2,0.4,4,0.6,6,0.6c2.1-0.1,4.3,0,6.4-0.1
		c0.7,0,1.4,0,1.9,0.6c0.1,0.1,0.2,0.1,0.4,0.2c1-1.6,2.4-2.8,4.1-3.7c1.5-0.8,3-1.4,4.5-2c1.3-0.6,2.7-1.1,4-1.6
		c0.5-0.2,1.1-0.4,1.7-0.6c1.3-0.4,2.5-0.8,3.8-1.2c0.9-0.2,1.8-0.4,2.6-0.6c0-0.4-0.1-0.9,0-1c0.3-0.3,0.8-0.6,1.3-0.7
		c0.9-0.1,1.9-0.1,2.9-0.1c0.2,0,0.4,0.3,0.6,0.5c0.1,0.2,0.1,0.4,0.1,0.7c0.6,0,1.1,0.1,1.7,0.1c2.1,0.1,4,0.7,5.6,2
		c0.5,0.4,1,0.4,1.4,0.1c0.7-0.5,1.4-1,2-1.6c0.9-0.8,0.9-1.7,0.3-2.8c-0.3-0.5-0.4-1-0.6-1.5c-0.2-0.3-0.4-0.8-0.6-0.9
		c-1.2-0.4-1.8-1.5-2.3-2.5c-0.3-0.6-0.4-1.2-0.6-1.8c-0.7-0.3-1.3,0.1-1.9,0.4c-0.3,0.4,0.5,1-0.2,1.4c-0.2,0.1-0.6,0.1-0.9,0.2
		c-0.3-1.1,0.2-1.8,0.7-2.6c-0.4-0.4-0.8-0.1-1.1,0.1c-0.3,0.2-0.6,0.5-0.9,0.6c-0.1,0.1-0.4,0.1-0.5,0c-0.9-0.8-1.7,0.1-2.5,0.2
		c-0.8,0.1-1.6,0.2-2.4,0.2c-0.5,0-1-0.5-1.1-1c-0.1-0.4,0.2-1,0.7-1.2c0.9-0.4,1.8-0.7,2.7-1.1c0.6-0.2,1.2-0.3,1.6-0.9
		c0.1-0.2,0.5-0.3,0.8-0.5c0.5,0.2,1,0.3,1.6,0.5c0-0.3,0.1-0.5,0-0.6c-0.6-0.6-1.1-1.4-2.1-1.3c-1,0-2,0.1-2.9-0.4
		c-0.7-0.4-0.9-0.8-0.7-1.6c0.3-1,0.7-1.3,1.8-1.3c0.8,0,1.6,0,2.4,0c0.4,0,0.7-0.2,1-0.5c0.3-0.3,0.6-0.7,0.9-1
		c0.7-0.7,1.8-0.9,2.7-0.6c0.5,0.2,0.9,0.5,1.4,0.7c0.3,0.1,0.6,0.3,0.9-0.1c0.1-0.1,0.4-0.2,0.6-0.2c0.9,0,1.8-0.1,2.8,0
		c0.9,0,1.1,0.3,1.1,1.2c0,0.5,0,1.1,0,1.6c1.9,0.7,3.1,2.1,4.4,3.5c-0.7,1-0.8,1.9-0.3,2.9c0.5,1,1,2,1.6,2.9
		c0.4,0.6,0.5,1.2,0.5,1.9c0,0.5-0.1,0.9-0.1,1.6c1.2-0.5,1.9-1.4,3-1.8c1-0.4,2-0.7,3.1-1.1c0.6,0.5,0.7,1.2,0.8,1.9
		c0.1,1.8,0.2,3.6,0.2,5.4c0,1.1-0.1,2.1-0.2,3.2c-0.2,1.5-0.8,1.9-2.2,1.4c-0.6,0.5-0.5,1.1-0.4,1.7c0,0.1,0,0.2,0.1,0.2
		c1.3,0.4,1.4,1.8,2,2.6c0.2,0.3,0.4,0.5,0.6,0.8c1-0.2,2-0.3,2.9-0.4c0.6-0.1,1.1,0,1.5,0.6c0.4,0.6,0.4,1.2,0.1,1.8
		c-0.1,0.3-0.4,0.6-0.8,0.5c-0.5,0-1,0.1-1.5,0c-0.8-0.1-1.5,0.3-2.2,0.5c-0.4,0.1-0.3,0.5-0.2,0.8c0.4,0.7,0.7,1.5,1,2.2
		c1.1,2.2,2.3,4.5,3.4,6.7c0.7,1.3,1.3,2.5,2.1,3.9c0.8-0.3,1.4-0.6,2.1-0.9c1.5-0.8,3.1-1.2,4.6-1.7c1.1-0.4,2.3-0.2,3.4-0.6
		c0.4-0.2,1,0,1.6,0.1c0.3,1.6-1,2.2-2,3.2c0.4,0,0.7,0.1,0.9,0c0.9-0.2,1.7-0.2,2.6,0c0.6,0.2,1.3,0.1,1.9,0.1
		c1.6,0,3.1,0.4,4.6,0.8c1.3,0.3,2.5,0.7,3.7,1.4c1.6,0.9,3.2,1.8,4.7,2.9c1.3,1,2.6,2.1,3.6,3.3c1.7,2,2.9,4.1,4,6.5
		c0.8,1.8,1.1,3.8,1.7,5.7c0.1,0.3,0.1,0.6,0.1,0.8c0,1.7,0.1,3.3,0,5c-0.1,1.2-0.3,2.4-0.6,3.7c-0.4,2-1.1,3.9-2,5.8
		c-1.4,2.8-3.4,5.2-5.7,7.3c-1.9,1.7-3.9,3.1-6.1,4.1c-1.2,0.6-2.5,1-3.8,1.2c-1.2,0.2-2.3,0.5-3.5,0.7c-0.8,0.1-1.7,0.1-2.5,0.1
		c-1.2,0-2.4,0.1-3.6-0.1c-1.2-0.1-2.4-0.4-3.6-0.7c-4.5-1.2-8.3-3.8-11.5-7c-2.2-2.2-3.8-4.9-4.9-7.9c-0.9-2.4-1.3-4.9-1.5-7.3
		c-0.2-2.4-0.1-4.8,0.6-7.2c0.6-2,1.3-3.9,2.2-5.8c0.1-0.1,0.1-0.3,0.1-0.4c0-0.1,0-0.3,0-0.5c-0.5,0.1-0.9,0.1-1.4,0.2
		c-0.4,0.1-0.8,0.2-1.1,0.2c-0.8,0-1-0.4-0.6-1.1c0.4-0.7,0.8-1.5,1.4-2.1c0.7-0.7,0.5-1.4,0.4-2.2c-0.2-0.8-0.5-1.5-0.7-2.3
		c-0.5-2.3-0.6-4.7,0-7.1c0.4-1.7,1-3.3,1.5-4.9c0.2-0.5,0.2-1-0.1-1.5c-0.8-1.4-1.5-2.9-2.3-4.3c-0.8,0.1-1.3-0.3-1.7-1
		c-0.2-0.3-0.6-0.6-0.7-0.9c-0.3-0.9-1-0.9-1.7-0.7c-0.3,1-0.6,2.1-0.9,3.1c-0.1,0.5-0.4,0.9-0.8,1.2c-0.2,0.1-0.2,0.4-0.3,0.6
		c0.9,0.4,1.6,0.8,2.2,1.2c0.1,0.9-0.5,1.1-0.8,1.6c0.3,0.2,0.7,0.4,1,0.6c0.8,0.4,1,0.7,0.7,1.5c-0.4,1.1-0.8,2.2-1.4,3.3
		c-0.3,0.5-0.4,1-0.4,1.6c0,0.8-0.1,1.7-0.2,2.5c-0.1,1.1-0.9,1.9-1.6,2.6c-0.7,0.6-1.4,1.2-2.1,1.8c-0.3,0.2-0.5,0.5-0.8,0.7
		c0.1,0.4,0.2,0.8,0.2,1.3c0.1,0.5,0.2,1.1,0.1,1.6c-0.3,1.8-0.7,3.6-1.6,5.3c-0.5,1.1-0.7,2.4-1,3.6c-0.4,1.8-1.2,3.5-2.7,4.6
		c-0.9,0.6-1.9,1.1-2.8,1.6c-2,1-3.9,2-5.9,3c-2.3,1.1-4.6,2-7.2,1.8c-1.6-0.1-3.3,0-4.9,0c-3.8-0.1-7.5-0.2-11.3-0.3
		c-0.5,0-1.1,0-1.6,0c-1.7,0.1-3.4-0.2-5-0.6c-1-0.2-2-0.9-2.9-1.4c-0.7-0.4-1.3-0.8-2-1.1c-0.3-0.1-0.8-0.2-1-0.1
		c-0.7,0.5-1.3,0.2-1.8-0.3c-0.2-0.2-0.4-0.3-0.6-0.5c-0.1,0-0.2,0-0.2,0c-0.9,0.2-1.2,0.8-1.3,1.7c-0.1,1.2-0.3,2.4-0.5,3.6
		c-0.5,2.6-1.6,5-3.1,7.2c-1,1.5-2.1,2.8-3.3,4.1c-1,1-2.1,2-3.2,2.8c-1.6,1.2-3.2,2.2-5.1,3c-1.1,0.4-2.3,0.8-3.5,1.1
		c-1.1,0.3-2.3,0.5-3.5,0.8c-0.4,0.1-0.8,0.1-1.2,0.1c-1.4,0-2.8,0-4.1,0c-1.5,0-3-0.3-4.4-0.8c-1-0.3-2.1-0.5-3.1-0.9
		c-1.1-0.4-2.2-0.9-3.3-1.5c-1.9-1.1-3.7-2.4-5.2-3.9c-1.3-1.3-2.4-2.7-3.5-4.2c-0.8-1.1-1.4-2.2-2.1-3.4c-0.9-1.7-1.4-3.5-1.7-5.4
		c-0.5-2.6-0.4-5.2-0.3-7.7c0.1-1.5,0.5-3,0.7-4.5c0.3-1.5,0.8-2.8,1.4-4.2c0.7-1.7,1.7-3.3,2.8-4.7c1.3-1.7,2.7-3.2,4.4-4.6
		c1.8-1.5,3.7-2.7,5.8-3.7c1.8-0.9,3.7-1.5,5.6-1.8c2.5-0.4,5-0.8,7.5-0.3c0.3,0.1,0.6,0.1,0.8,0.1c2.2,0.2,4.4,0.8,6.4,1.8
		C212.5,578.4,213.9,579.2,215.5,580z M239.3,581.2c0.5-0.8,1.2-0.3,1.9-0.5c-0.7-0.6-1.3-1.2-2.1-1.9c0.1-0.6,0.3-1.4,0.5-2.2
		c-0.5,0-0.8-0.1-1.2-0.1c-1.1,0-2.2,0-3.3,0c-1.3,0-1.8-0.5-1.8-1.8c0-0.7,0-1.4,0-2.3c-0.6-0.2-1.2-0.4-1.8-0.4
		c-1.9-0.1-3.7-0.2-5.6-0.2c-0.4,0-0.7,0.1-1.2,0.1c0.2,0.4,0.3,0.6,0.4,0.8c0.7,1,1.4,2,2.2,3c1.5,2,3,4,4.6,6
		c1,1.3,2.2,2.5,3.3,3.8c0.3,0.3,0.6,0.6,1.2,0.6c-0.3-0.5-0.6-1-0.9-1.5c0.5-0.2,0.7-0.2,1,0.1c0.4,0.4,0.8,0.8,1.3,1.2
		c0.4,0.3,0.7,0.8,1.5,0.6c-0.6-0.5-1.1-0.9-1.6-1.4c0.1-0.2,0.1-0.4,0.2-0.5c0.4-0.1,0.8-0.1,1.5-0.2c-0.4-0.4-0.6-0.6-0.9-0.8
		c-0.3-0.3-0.2-0.6,0.2-0.8c0.3-0.1,0.6-0.1,0.8-0.1c0.4,0,0.7-0.1,0.7-0.5C239.9,581.8,239.6,581.5,239.3,581.2z M293,571.8
		c-0.1,0.4-0.2,0.7-0.3,1c-0.7,1.4-0.9,2.9-1.1,4.4c-0.2,1.6-0.1,3.3,0,4.9c0.1,1.1,0.4,2.2,1,3.2c1.4-1.4,2.7-2.8,4.1-4.2
		c0.2-0.2,0.3-0.5,0.2-0.8c-0.2-0.6,0-1.1,0.5-1.5c-0.4-0.7-0.7-1.2-1-1.8c-0.9-1.6-1.8-3.2-2.7-4.8
		C293.5,572.1,293.2,572,293,571.8z M220.3,584c0,0,0.1-0.1,0.1-0.1c-0.2-0.5-0.2-1.1-0.5-1.6c-0.5-0.9-0.3-1.6,0.4-2.4
		c0.3,0.3,0.6,0.6,0.8,0.9c0.4,0.7,1.1,1.2,1.9,1.5c-0.4-0.8-0.4-1.5-0.1-2.4c1.3,0.2,1.4,1.6,2.4,2.2c0.6-1.1,1.2-2.1,1.8-3.3
		c-0.6-0.6-1.1-1.3-1.8-1.9c-0.7-0.6-1.5-1-2.3-1.5c-0.6-0.4-0.7-0.5-1.2,0.1c-1,1.1-2,2.1-3,3.2c-0.6,0.6-1.2,1.3-1.8,2
		C218.1,581.9,219.2,582.9,220.3,584z M206.3,616.7c0-1.8,0-3.6,0-5.4c0-0.7-0.2-1.2-0.7-1.4c-1.4,0.5-2.7,1-4,1.5
		c0.7,1.9,1.4,3.9,2.2,6C204.6,617.1,205.4,617,206.3,616.7z M331,601.3c0-0.6-0.1-1.1-0.1-1.6c-0.1-0.8-0.3-1-1.1-1
		c-1.2,0-2.4,0-3.6,0c-0.6,0-1.2,0-1.9,0c0.2,1.3,0.4,2.5,0.6,3.8C326.9,602.1,328.9,601.7,331,601.3z M281,576.2
		c-0.2,0.6-0.4,1.2-0.7,1.8c-0.3,1-0.5,2-1,2.9c-0.4,0.8-0.3,1.3,0.3,1.8c0.1,0.1,0.3,0.3,0.5,0.5c0.8-0.7,1.6-1.2,2.2-1.9
		c0.9-1,1.6-2.1,1.1-3.6c-0.1-0.3-0.3-0.5-0.6-0.7C282.3,576.7,281.7,576.5,281,576.2z M199.2,611.3c-1.1-0.4-2.1-0.8-3.1-1.2
		c-0.5-0.2-0.7-0.1-0.9,0.3c-0.5,1.4-1,2.8-1.6,4.2c-0.2,0.4-0.1,0.7,0.3,0.9c0.3,0.2,0.5,0.3,0.8,0.4c0.5,0.2,0.9,0.1,1.2-0.3
		c1-1.3,2-2.5,3-3.7C199.1,611.7,199.2,611.5,199.2,611.3z M234.7,590.2c0.1-0.5,0.1-0.9,0.2-1.3c0.2-0.6,0-1-0.4-1.3
		c-0.9-0.9-1.8-1.7-2.8-2.6c-1.4,0.8-2.5,1.8-3.7,2.8c0.4,0.1,0.7,0.2,1.1,0.2c0.7,0,1.3,0,2,0c0.2,0,0.5,0.3,0.6,0.5
		c0.1,0.3,0.1,0.6-0.3,0.8c-0.1,0-0.2,0.1-0.4,0.2c0.5,0.4,0.9,0.7,1.2,1C233.1,590.4,233.9,590.3,234.7,590.2z M319.2,611.9
		c-1.2-0.1-2.1,0.6-3.2,1c0.2,0.6,0.4,1,0.6,1.5c0.5,1.2,1,2.3,1.5,3.5c0.3,0.7,0.5,0.8,1.2,0.6c0.3-0.1,0.7-0.2,1-0.4
		c0.3-0.1,0.4-0.4,0.3-0.8C320.1,615.6,319.7,613.8,319.2,611.9z M324,606.1c-0.4,0.8-0.9,1.5-1.3,2.2c-0.3,0.5-0.3,0.6,0.3,0.9
		c1.4,0.7,2.7,1.4,4.1,2c0.9,0.4,1.3,0.3,1.7-0.6c0.1-0.1,0.1-0.2,0.3-0.4c-1.5-1.3-3.1-2.7-4.6-4
		C324.5,606.2,324.2,606.2,324,606.1z M191.6,601c0.4-1.3,0.7-2.4,1.1-3.6c-1.1-0.3-2-0.6-3-0.8c-0.9-0.2-1.8-0.8-2.8-0.6
		c-0.2,0.6-0.4,1-0.6,1.6C188.1,598.7,189.7,599.9,191.6,601z M322.8,595.9c0.2-0.3,0.5-0.5,0.7-0.8c0.8-1.2,1.6-2.4,2.4-3.7
		c0.3-0.5,0.2-0.8-0.3-1.3c-0.6-0.5-0.9-0.6-1.3-0.2c-0.8,0.7-1.7,1.3-2.5,2.1c-0.4,0.4-1.2,0.7-1.2,1.4
		C321.3,594.3,322,595,322.8,595.9z M207.7,607.9c0.3,0.4,0.5,0.8,0.9,1.1c0.2,0.3,0.5,0.4,0.8,0.6c1,0.7,2,1.4,3,2.1
		c0.7,0.5,0.9,0.5,1.5-0.2c0.6-0.8,1.1-1.6,1.6-2.4c0.2-0.3,0.4-0.8,0-1.1c-0.4-0.3-0.8-0.1-1.1,0.3c-0.2,0.2-0.5,0.5-0.8,0.5
		c-1,0.2-2,0.4-3,0.5c-0.7,0.1-1.1-0.3-1.2-1c-0.1-0.5,0-1,0-1.5c0-0.4-0.1-0.7-0.6-0.8c-0.2,0.3-0.3,0.5-0.5,0.8
		C208.1,607.1,208,607.4,207.7,607.9z M194.4,594.6c0.4,0,0.6,0,0.8,0c0.4-0.1,1.7-1.4,1.7-1.7c0-0.1-0.1-0.3-0.2-0.5
		c-0.7-1.1-1.5-2.3-2.3-3.4c-0.3-0.4-0.6-0.7-0.9-1.1c-0.5,0.4-0.9,0.8-1.4,1.1C193,590.9,193.7,592.8,194.4,594.6z M311.8,612.8
		c-0.8-0.3-1.5-0.6-2.3-0.8c-0.4-0.1-0.6,0.1-0.7,0.5c-0.4,1.4-0.8,2.8-1.3,4.2c-0.1,0.3-0.2,0.7,0.2,0.9c0.4,0.2,0.9,0.4,1.4,0.5
		c0.4,0.1,0.7,0,0.8-0.4C310.6,616.1,311.2,614.5,311.8,612.8z M313.1,619c1.3,0,2.5,0.1,3.6,0c0.9-0.1,1-0.4,0.7-1.2
		c-0.4-1.1-0.9-2.1-1.3-3.2c-0.3-0.6-0.5-1.2-0.8-1.7c-0.1,0-0.2,0-0.3,0C314.3,614.8,313.8,616.9,313.1,619z M252.1,580.9
		c2.2,0,4.3,0,6.4,0c0.3-1.1,0.7-2.1,0.5-3.2c-0.5,0-1,0.1-1.5,0.1c-0.6-0.1-0.8,0.3-1,0.7c-0.1,0.2,0,0.4,0,0.5
		c0,0.6-0.3,0.8-0.8,0.9c-0.5,0-1,0-1.5,0c-0.6,0-0.9-0.3-1.1-0.8c-0.3-0.9-0.9-1.7-0.9-2.8c0-0.1-0.2-0.3-0.4-0.6
		c-0.4,1-1,1.7-0.2,2.7c0.3,0.5,0.3,1.2,0.5,1.8C252,580.5,252,580.7,252.1,580.9z M316.1,586.2c-0.6,0-1.3,0-1.9,0
		c-0.3,1.8-0.8,3.4-0.9,5.3c1.2,0,2.3,0,3.5,0C316.7,589.6,316.8,587.9,316.1,586.2z M305.6,609.1c-0.6-1-1.6-1.8-2.4-2
		c-0.2-0.1-0.5,0-0.7,0.1c-1,0.6-1.9,1.3-2.9,1.9c0.3,0.6,0.5,1.2,0.8,1.8c0.2,0.4,0.4,0.5,0.9,0.3
		C302.6,610.5,304.1,609.8,305.6,609.1z M187.4,608.5c1.9-0.3,3.8-0.6,5.7-1.2c-0.4-0.9-0.8-1.7-1.3-2.6c-1.8,0.3-3.4,1.3-5.1,2.1
		C187,607.4,187.1,607.8,187.4,608.5z M314.1,612.9c-0.5,0-1.1,0-1.7,0c-0.5,1.3-1,2.6-1.5,3.9c-0.2,0.5-0.6,1-0.3,1.7
		c0.2,0,0.4,0.1,0.5,0.1c0.2,0.1,0.4,0.1,0.6,0.2c0.7,0.2,0.9,0.1,1.1-0.6c0.3-1.1,0.6-2.2,0.9-3.2
		C313.9,614.3,314.2,613.7,314.1,612.9z M326.3,614.2c0.5-0.5,0.9-0.9,1.2-1.3c0.4-0.5,0.3-0.7-0.2-1c-0.8-0.4-1.7-0.8-2.5-1.2
		c-0.9-0.4-1.9-0.8-2.8-1.3c-0.4,0.9-0.3,1.5,0.4,2.1c0.5,0.4,1,0.7,1.5,1.1C324.6,613.2,325.4,613.7,326.3,614.2z M197.6,592.4
		c0.2-0.4,0.6-0.6,0.6-0.9c0-0.8,0.2-1.8-0.1-2.5c-0.4-0.9-1.2-1.6-1.8-2.4c-0.7,0.5-1.5,0.5-2,1.2
		C195.4,589.3,196.3,590.9,197.6,592.4z M330.8,602c-2.1,0.2-4.1,0.5-6.1,1.2c0.1,0.2,0,0.3,0.1,0.4c0.6,0.4,1.1,0.8,1.9,0.8
		c0.8,0,1.6,0,2.4,0c1.8,0.1,2-0.1,1.8-2C331,602.4,330.9,602.3,330.8,602z M323.1,616.6c-0.6-1.7-1.1-3.2-1.6-4.8
		c-0.1-0.3-0.5-0.5-0.9-0.7c-0.2-0.1-0.5,0-0.9,0c0.4,2.3,0.9,4.4,1.6,6.6C321.9,617.3,322.4,617,323.1,616.6z M324.3,605.1
		c1.6,1.7,3.4,3.1,5.2,4.6c0.2-0.6,0.4-1.1,0.7-1.6c0.3-0.5,0-0.7-0.4-1c-1.1-0.6-2.1-1.1-3.2-1.8
		C325.9,604.9,325.2,604.8,324.3,605.1z M312.6,591.4c0.3-1.7,0.7-3.2,0.9-4.7c0.1-0.4-0.1-0.7-0.6-0.6c-0.4,0-0.8,0.1-1.2,0.1
		c-0.7,0.1-0.9,0.2-0.8,0.9c0.1,1.4,0.2,2.8,0.3,4.4C311.8,591.5,312.2,591.5,312.6,591.4z M284,539.8c-0.7-1.1-1.4-2.2-2-3.3
		c-0.3,0-0.8-0.1-0.9,0.1c-0.4,0.7-1.2,0.7-1.9,0.9c0.4,0.7,0.7,1.2,1,1.8c0.4,0.9,1.5,0.5,2.1,1.1c0.1,0.1,0.4,0.1,0.6,0.1
		c0.1,0,0.2-0.1,0.3-0.2C283.3,540.2,283.6,540.1,284,539.8z M322.3,587.9c-0.2,0.2-0.3,0.2-0.4,0.4c-0.9,1.2-1.9,2.5-2.8,3.7
		c-0.1,0.1-0.1,0.5,0,0.6c0.2,0.2,0.5,0.3,0.7,0.3c0.3-0.1,0.6-0.3,0.9-0.5c0.8-0.7,1.6-1.4,2.4-2c0.4-0.3,0.8-0.7,1.2-1.1
		C323.6,588.7,323,588.3,322.3,587.9z M192.4,596.7c0.4-0.5-0.1-0.8-0.3-1.1c-0.2-0.5-0.5-1.1-1-1.3c-0.9-0.5-1.9-0.7-2.9-1
		c-0.4,0.7-1.1,1.2-1,2.1C189,595.9,190.7,596.3,192.4,596.7z M274.3,573.8c0.7-0.2,1.3-0.4,2-0.6c0-0.5,0.1-0.9,0.1-1.4
		c0-0.6-0.8-1.6-1.3-1.7c-0.7-0.2-1.2,0.2-1.6,1c-0.8-0.9-1.7-1-2.9-0.8c0.5,0.6,1,0.8,1.7,0.9c0.6,0.1,1.2,0.5,1.8,0.8
		c0.5,0.3,0.2,0.8,0.2,1.3C274.2,573.5,274.3,573.6,274.3,573.8z M191.7,603.9c0-0.1,0-0.2,0-0.3c-0.6-0.5-1.4-0.6-2.2-0.9
		c-0.1,0-0.2,0-0.3,0.1c-0.8,0.4-1.5,0.8-2.3,1.2c-0.5,0.3-0.7,0.6-0.6,1.2c0.1,0.3,0.1,0.6,0.1,0.9c0.2,0,0.4,0.1,0.5,0
		C188.6,605.4,190.1,604.7,191.7,603.9z M277.4,586.7c-0.6,1.9-1.2,3.9-1.9,5.8c-0.8,1.9-1.7,3.7-2.7,5.6c0.8,0.1,1.1-0.3,1.4-0.7
		c0.9-1.2,1.4-2.6,1.7-4c0.2-0.9,0.5-1.8,0.8-2.7c0.2-0.7,0.6-1.4,0.8-2.1C277.7,588,277.8,587.4,277.4,586.7z M306.9,610.5
		c-0.7-0.8-1-0.9-1.7-0.6c-1.2,0.5-2.3,1.1-3.5,1.6c-0.4,0.2-0.6,0.5-0.3,0.9c0.3,0.4,0.6,0.7,0.9,1.1
		C304,612.6,305.5,611.6,306.9,610.5z M273.2,582.8c-0.1,0-0.2-0.1-0.2-0.1c-1.1,2-2.1,4-3.2,5.9c0,0,0.1,0.1,0.1,0.2
		c0.1,0,0.2,0,0.3-0.1c0.6-0.7,1.2-1.4,1.8-2c0.5-0.5,0.7-1.3,1.5-1.5c0.1,0,0.2-0.2,0.2-0.3c0.1-0.7,0.5-1,1-1.4
		c0.4-0.3,0.6-0.7,0.2-1.1C274.3,582.6,273.7,582.7,273.2,582.8z M195,609.5c-1-0.1-2.1,0.4-2.4,1.2c-0.3,0.7-0.6,1.4-0.8,2.1
		c-0.3,0.8-0.2,0.9,0.4,1.4c0.2,0.1,0.4,0.3,0.7,0.4c0.2-0.2,0.4-0.4,0.5-0.6C193.9,612.6,194.4,611,195,609.5z M306.9,617
		c0.5-1.7,1-3.1,1.4-4.5c0.1-0.3,0.1-0.6,0.1-0.8c0-0.2-0.2-0.5-0.4-0.5c-0.2-0.1-0.5,0.1-0.6,0.2c-0.2,0.3-0.4,0.6-0.5,1
		c-0.5,1.3-1,2.5-1.5,3.8C305.8,616.5,306.3,616.7,306.9,617z M185.9,600.7c1.2,0.4,2.2,0.9,3.3,1.2c0.3,0.1,0.8-0.1,1.2-0.3
		c0.1-0.1,0.2-0.4,0.3-0.6c-0.3-0.2-0.4-0.3-0.6-0.4c-1-0.6-2-1.3-3-1.9c-0.6-0.4-0.9-0.2-1,0.5
		C185.9,599.7,185.9,600.2,185.9,600.7z M324.1,597.9c0,0.1,0.1,0.2,0.1,0.2c2.1,0,4.1,0,6.2,0c0.1-0.9-0.3-1.5-0.7-2.1
		c-0.4,0.1-0.8,0.3-1.2,0.4c-1.3,0.3-2.5,0.6-3.8,0.9C324.5,597.4,324.3,597.7,324.1,597.9z M326.8,591.3c-0.2,0.3-0.3,0.4-0.4,0.5
		c-0.9,1.4-1.9,2.8-2.8,4.2c-0.2,0.2-0.1,0.6-0.1,1c0.1,0,0.2,0.1,0.3,0.1c1.6-1.3,2.8-2.9,4.2-4.4
		C327.5,592.2,327.2,591.8,326.8,591.3z M317.2,586.3c0,0.2-0.1,0.3-0.1,0.5c0.1,1.2,0.1,2.4,0.2,3.6c0,0.4,0.1,0.8,0.2,1.1
		c0.1,0.2,0.3,0.4,0.4,0.4c0.2,0,0.4-0.2,0.5-0.4c0.1-0.2,0.1-0.6,0.1-0.8c0.1-0.6,0.1-1.3,0.2-1.9c0.1-0.7,0.2-1.4,0.3-2
		C318.4,586.3,317.9,586.1,317.2,586.3z M208.2,609.8c-0.2,0.8,0,1.4,0.5,2c0.7,0.6,1.4,1.3,2.1,1.9c0.3,0.3,0.7,0.3,1,0
		c0.3-0.3,0.5-0.6,0.8-0.9c-1.4-1-2.7-1.9-4-2.8C208.6,609.7,208.4,609.8,208.2,609.8z M191.5,589.3c-0.3,0.4-0.5,0.6-0.8,0.8
		c-0.6,0.5-0.6,0.7-0.2,1.5c0.2,0.5,0.5,0.9,0.8,1.4c0.5,0.8,1.2,1,2.3,1.1C193,592.5,192.5,590.9,191.5,589.3z M193,608.1
		c-1.8,0.3-3.3,0.6-4.9,0.9c0,1,0.4,1.6,1.2,2c0.9-0.4,1.7-0.8,2.5-1.1C192.6,609.6,192.7,608.9,193,608.1z M303.9,595.3
		c-0.2-1.2-1.3-2-2-3c-1,0.7-1.7,1.9-1.6,2.7C301.5,595.4,302.5,596.2,303.9,595.3z M259.9,569.5c0.3,1.2-0.6,1.9-1.1,2.7
		c0.6,0.1,1.1,0.3,1.6,0.3c0.2,0,0.5-0.1,0.8-0.2c0.4-0.3,0.8-0.7,1.2-1c0.3-0.2,0.6-0.5,0.6-0.9c-0.6-0.1-1-0.1-1.5-0.2
		C261,570,260.5,569.7,259.9,569.5z M208.3,615.8c-0.1-1-0.2-1.9-0.3-2.8c-0.1-0.8-0.3-1.5-1.2-1.9c0,1.8,0,3.5,0,5.2
		C207.6,616.6,208,616.1,208.3,615.8z M298.2,603.4c1,0.2,2,0.4,3,0.6c0-0.7,0.2-1.3-0.3-1.7c-0.7-0.6-1.5-1.2-2.7-0.9
		C298.2,602,298.2,602.7,298.2,603.4z M199.4,612.3c-1.1,1.3-2.1,2.6-3.2,3.9c0.8,0.8,1.6,0.8,2.1,0c0.4-0.8,0.9-1.7,1.3-2.5
		C199.7,613.3,199.9,612.8,199.4,612.3z M203,617.1c-0.6-1.7-1.2-3.3-1.8-4.9c-0.8,0.5-0.8,1.1-0.6,1.8c0.3,0.8,0.5,1.6,0.7,2.4
		C201.7,617.4,201.8,617.5,203,617.1z M329.6,595.4c-0.5-0.6-0.6-1.5-1.4-1.9c-0.9,0.9-1.7,1.9-2.6,2.9
		C326.6,596.4,328.3,596,329.6,595.4z M274.4,575.3c0,0.3-0.1,0.6-0.1,0.9c0,0.2,0.1,0.4,0.2,0.5c0.7,0.3,1.5,0.6,2.3,0.9
		c0.1-1.1,0.1-2,0.2-3c-0.5,0.1-0.9,0.2-1.3,0.3C275.3,575,274.9,575.1,274.4,575.3z M323.6,616.2c0.3-0.1,0.6-0.2,0.8-0.3
		c1.5-0.9,1.5-1.1,0.1-2.1c-0.6-0.4-1.1-1-1.9-1.1C322.6,614,323.3,615,323.6,616.2z M267.4,569c0.1,0.1,0.2,0.2,0.2,0.3
		c0.1,0.1,0.2,0.3,0.3,0.4c0.2,0.3,0.6,0.2,0.8-0.1c0.2-0.4,0.1-0.9-0.3-1.1c-0.3-0.2-0.6-0.3-0.9-0.5c-1.2-0.8-2.3-0.4-3.6,0.3
		C265.2,568.8,266.1,569.4,267.4,569z M301.4,605.3c-1,0.5-1.9,1-2.8,1.5c0.2,0.6,0.3,1.1,0.5,1.7c1.1-0.6,2.2-1.1,2.9-2
		C301.8,606,301.6,605.7,301.4,605.3z M306.2,612c-0.2,0-0.4,0-0.4,0c-0.6,0.4-1.1,0.8-1.7,1.2c-1.4,1-1.4,1.1,0,2.1
		c0.6,0.4,0.8,0.3,1.1-0.3c0.3-0.7,0.6-1.3,0.8-2C306.1,612.6,306.1,612.3,306.2,612z M309.9,609.5c0.6,0.3,1,0.5,1.4,0.6
		c0.1,0.1,0.3,0.1,0.4,0.1c1,0.2,1.2,0,1.4-0.9c0-0.1,0-0.2,0.1-0.3c0.1-0.3,0.3-0.8-0.1-0.9c-0.3-0.2-0.8-0.2-1.1-0.1
		C311.3,608.4,310.7,608.9,309.9,609.5z M308.1,587.3c0.8,1.2,1.5,2.2,2.1,3.2c0.1,0,0.1,0,0.2-0.1c0-1.3,0-2.5,0-4
		C309.6,586.8,309,587,308.1,587.3z M310.3,591.8c-0.8-1.3-1.7-2.5-2.5-3.7c-0.1-0.2-0.4-0.2-0.6-0.2c0,0.2-0.1,0.5,0,0.7
		c0.2,0.5,0.5,1.1,0.8,1.6c0.4,0.8,0.9,1.5,1.3,2.3C309.7,592.1,310,592,310.3,591.8z M319.6,586.8c-0.2,1.2-0.4,2.3-0.6,3.3
		c0,0.1,0,0.3,0,0.4c0,0,0.1,0.1,0.2,0.2c0.8-1,1.5-2,2.4-3.2C320.9,587.3,320.3,587.1,319.6,586.8z M301.3,601.3
		c0.4-1.1,0.8-2,1.1-3.1c-0.8,0-1.4,0-2.1,0C300,599.5,300.2,600.5,301.3,601.3z M200,614.2c-0.6,1-1.2,1.8-1.4,3
		c0.8,0,1.5,0.1,2.6,0.1C200.6,616.2,200.7,615.2,200,614.2z M316.6,594.4c-0.9-0.7-1.9-0.7-3-0.5c0.6,0.9,0.9,1.8,1.6,2.5
		C315.7,595.7,316.1,595.1,316.6,594.4z M216.1,596.8c-0.5-0.5-1.1-0.3-1.7-0.2c-1.6,0.2-3.2,0.5-4.8,0.8c-0.5,0.1-0.5,0.1-0.7,0.8
		C211.3,597.6,213.7,597.2,216.1,596.8z M330.9,605c-1.4-0.2-2.8-0.1-3.4,0.2c0.8,0.4,1.5,0.7,2.2,1.1c0.9,0.5,1.2,0.4,1.3-0.6
		C330.9,605.4,330.9,605.2,330.9,605z M198.9,588.1c-0.1,1.2,0.8,1.8,1.5,2.6c0.2-0.4,0.4-0.8,0.5-1.1c0.1-0.2,0.1-0.7-0.1-0.8
		C200.3,588.5,199.8,587.8,198.9,588.1z M298.6,606.3c0.6-0.4,0.9-0.6,1.3-0.9c0.4-0.2,0.9-0.4,1.3-0.9c-1.1,0.1-1.9-0.7-3.1-0.3
		C298.2,604.8,298.4,605.5,298.6,606.3z M224.9,590.3c0.3,1.1,0.6,1.1,2.6,0.7c0-0.4,0-0.7,0-1.1
		C226.6,589.9,225.7,589.6,224.9,590.3z M281.7,573.9c0.1,0,0.2,0.1,0.4,0.1c0.3-0.7,0.6-1.5,1-2.1c0.3-0.6,0.4-1.4,1.1-1.7
		c0.1-0.1,0.1-0.5,0.2-0.7c-0.3-0.1-0.5-0.1-0.6-0.1c-0.2,0-0.4,0.1-0.6,0.2C282.8,571,282,572.4,281.7,573.9z M208.6,612.5
		c-0.1,1,0.2,2.4,0.6,3c0.3-0.1,0.6-0.3,0.8-0.4c0.3-0.2,0.5-0.3,0.8-0.6C210.1,613.7,209.4,613.2,208.6,612.5z M186,603.7
		c1-0.4,1.9-0.5,2.5-1.4c-0.9-0.3-1.6-0.6-2.5-0.9C186,602.1,186,602.8,186,603.7z M299.6,595.6c-0.2,0.5-0.4,1.1-0.6,1.6
		c1.1,0.3,1.8,0.1,2.6-1.1C300.9,595.8,300.4,595.3,299.6,595.6z M201.4,592.2c0.4,0.9,0.6,1.1,1.1,1.1c0.8,0,1.1-0.6,1.5-1.1
		C203.4,591.3,203,591.3,201.4,592.2z M278.4,539.7c-0.2-1.2-0.7-1.9-1.7-2.2c-0.3-0.1-0.5-0.3-0.8-0.5c-0.4-0.2-0.9-0.3-1.2,0.1
		C275.9,538,277.1,538.8,278.4,539.7z M283.5,536.2c0.6,1,0.9,2.1,2,2.9c0.1-0.6,0.3-1.2,0.1-1.6
		C285.3,536.7,284.4,536.4,283.5,536.2z M281.5,541c0.4,0.9,0.6,1.7,1,2.5c0.4,0,0.9,0,1.5,0C283.4,542.4,282.9,541.4,281.5,541z
		 M191.9,610.8c-0.1-0.1-0.1-0.1-0.2-0.2c-0.8,0.2-1.6,0.5-2.3,1.1c0.5,0.5,0.8,1.2,1.6,1.2C191.4,612.2,191.6,611.5,191.9,610.8z
		 M259.7,578.7c-0.3,1-0.7,2-0.9,2.9c0,0.1,0.1,0.4,0.2,0.4c0.2,0,0.4,0,0.6-0.1C260.1,581.3,260.3,579.8,259.7,578.7z M299.3,598.2
		c-0.1-0.1-0.1-0.1-0.2-0.2c-0.2,0.1-0.5,0.3-0.6,0.4c-0.2,0.6-0.3,1.2-0.4,1.7c0.4,0.3,0.6,0.8,1.2,0.5
		C299.3,599.9,299.3,599.1,299.3,598.2z M318.9,598.1c0.7-0.1,1.1,0,1.4-0.1c0.5-0.1,0.7-0.5,0.3-1c-0.3-0.4-0.7-0.7-1.1-1.1
		C319.3,596.7,319.1,597.3,318.9,598.1z M262.3,567.8c-0.3-0.2-0.5-0.4-0.8-0.6c-0.4,0.3-0.8,0.6-1.3,1
		C261.5,569.2,261.6,569.2,262.3,567.8z M272.3,591.8c-0.2-0.3-0.4-0.5-0.6-0.7c-1.1,0.8-1.2,1.2-0.5,2.2
		C272.1,593.1,271.9,592.3,272.3,591.8z M188.4,592.9c0.9,0,1.4,0.7,2.2,0.3c-0.2-0.6-0.4-1.3-1.1-1.7
		C189.2,591.9,188.9,592.3,188.4,592.9z M304.2,597.6c-1.1-1.1-1.9-1.1-2.7,0C302.4,597.8,303.2,597.9,304.2,597.6z M192.4,594.8
		c0.2,0.5,0.4,0.9,0.7,1.3c0.2,0.4,0.5,0.3,0.8,0c0.3-0.4,0.4-0.7-0.1-1C193.4,594.7,193.1,594.6,192.4,594.8z M205.9,591.7
		c0.8,1.2,1.5,1.5,2.6,0.9C207.6,592.3,207.1,591.4,205.9,591.7z M211,603.7c0.3,0.3,0.5,0.6,0.6,0.6c0.7-0.3,1.6-0.1,2.3-1.1
		C212.8,603.3,212,603.5,211,603.7z M313.8,596.8c-0.5-0.4-0.5-1.2-1.3-1.1c0,0.5-0.1,1-0.2,1.7C312.8,597.1,313.2,597,313.8,596.8z
		 M321.1,598.7c-0.8-0.1-1.6-0.3-2,0.5C320.2,599.8,320.4,599.7,321.1,598.7z M302.7,591c-0.2,0.3-0.4,0.6-0.3,0.7
		c0.3,0.6,0.7,1.2,1.4,1.8C303.7,592.5,303.2,591.9,302.7,591z M194.1,559.5c-0.1,0-0.2,0.1-0.3,0.1c-0.1,0.5-0.3,1,0.2,1.4
		c0.3,0.3,0.7,0.1,1.1-0.3C194.8,560.4,194.4,560,194.1,559.5z M269.9,566.4c-0.3,0.5-0.2,0.8,0.1,1c0.1,0.1,0.4,0,0.6,0
		c0.3-0.2,0.7-0.4,0.3-0.9C270.6,566.4,270.2,566.4,269.9,566.4z M316.8,608.4c-0.2,0.7-0.7,1-0.3,1.5c0.4-0.1,0.8-0.2,1.4-0.4
		C317.5,609.2,317.3,608.9,316.8,608.4z M206.9,608.7c-0.2,1.3-0.2,1.3,0.7,1.8C207.6,609.8,207.7,609.2,206.9,608.7z M316.8,607.7
		c0.5,0.5,0.9,0.9,1.6,1C318.3,607.5,317.9,607.2,316.8,607.7z M275.6,532.5c-0.1,0.1-0.1,0.2-0.2,0.3c0.2,0.2,0.3,0.5,0.5,0.5
		c0.5,0,1,0,1.4-0.7C276.7,532.5,276.2,532.5,275.6,532.5z M321.9,604.3c-0.6-0.8-1.3-0.5-1.9,0
		C320.7,604.3,321.3,604.3,321.9,604.3z M249.7,583.5c-0.2-0.4-0.3-0.7-0.5-1c-0.1-0.1-0.5-0.2-0.5-0.1c-0.1,0.2-0.2,0.5-0.2,0.6
		C248.8,583.3,249.1,583.7,249.7,583.5z M275.6,579c0.8-0.1,0.8-0.2,0.6-1.3C275.6,578,275.6,578.5,275.6,579z M314.5,608.1
		c0.4,0.4,0.3,0.9,0.7,1.1c0.2-0.4,0.3-0.7,0.5-1.1C315.3,608.1,315,608.1,314.5,608.1z M201.4,590.2c0.5,0,0.9-0.1,1.3-0.1
		c-0.3-0.6-0.6-0.9-1.2-0.8C201.5,589.6,201.5,589.8,201.4,590.2z M199,590.2c-0.1,0-0.1,0-0.2,0c0,0.4-0.2,0.7,0.2,1.1
		c0.2-0.2,0.4-0.3,0.6-0.5C199.4,590.6,199.2,590.4,199,590.2z M317.6,597.3c-0.3-0.2-0.4-0.4-0.6-0.4c-0.1,0-0.2,0.2-0.4,0.3
		c0.1,0.2,0.3,0.3,0.5,0.5C317.2,597.7,317.4,597.5,317.6,597.3z M321.2,605.8c0.1,0,0.2-0.1,0.3-0.1c0-0.2,0.1-0.5,0.1-0.8
		c-0.3,0-0.6,0-1.1,0C320.8,605.4,321,605.6,321.2,605.8z M213.1,594.9c-0.7-0.3-1.1-0.4-1.6,0C212.1,595.3,212.5,595.1,213.1,594.9
		z M191.8,602.6c-0.2-0.4-0.3-0.7-0.5-0.7c-0.2,0-0.4,0.2-0.6,0.3c0,0,0,0.2,0,0.3C191.1,602.5,191.3,602.6,191.8,602.6z
		 M319.2,605.2c-0.2,0.4-0.4,0.6-0.6,1c0.4,0,0.6,0,0.9,0C319.5,605.8,319.4,605.6,319.2,605.2z M232.1,599.5
		c0.9-0.4,0.9-0.4,0.5-0.8C232.4,598.9,232.3,599.2,232.1,599.5z M214.2,602.5c-0.5-0.4-0.5-0.4-1.4,0
		C213.4,602.5,213.7,602.5,214.2,602.5z M313.6,610.4c0.1,0,0.2,0,0.4,0.1c0.2-0.3,0.2-0.6-0.2-1.2
		C313.7,609.8,313.6,610.1,313.6,610.4z M235.6,599.3c0,0.1,0.1,0.2,0.1,0.2c0.3,0,0.8,0.1,0.5-0.7C236,599,235.8,599.2,235.6,599.3
		z M304.4,596.7c0.1,0,0.2-0.1,0.3-0.1c0-0.2-0.1-0.4-0.1-0.5c-0.1,0-0.3,0.1-0.4,0.1C304.2,596.3,304.3,596.5,304.4,596.7z
		 M236.7,600.7c0.4,0.2,0.7,0.4,1.1,0C237.4,600.3,237.1,600.3,236.7,600.7z M311.8,594.3c-0.4,0.6-0.4,0.6-0.1,1.4
		C311.8,595.2,311.8,594.7,311.8,594.3z M216.4,606.8c-0.1,0-0.2-0.1-0.3-0.1c-0.1,0.2-0.3,0.4-0.4,0.7c0.1,0,0.1,0.1,0.3,0.1
		C216.2,607.2,216.3,607,216.4,606.8z M256.9,581.5c0,0.1,0,0.2,0,0.3c0.2,0,0.4,0,0.7-0.1c0-0.1,0-0.1,0-0.2
		C257.3,581.5,257.1,581.5,256.9,581.5z M320.6,603.2c-0.2-0.2-0.3-0.3-0.4-0.4c-0.1,0.1-0.2,0.2-0.2,0.3c0,0.1,0.1,0.2,0.2,0.3
		C320.2,603.4,320.4,603.3,320.6,603.2z M208.4,594.6c0.1-0.3,0.3-0.5,0-0.8c0,0-0.2,0-0.2,0C207.9,594.1,208,594.4,208.4,594.6z
		 M194.2,608.7c0-0.1,0-0.1,0-0.2c-0.2,0-0.4,0-0.6,0c0,0.1,0,0.3,0,0.4C193.8,608.8,194,608.8,194.2,608.7z M257.9,566.6
		c0-0.1,0-0.2-0.1-0.3c-0.3,0.1-0.6-0.2-0.8,0.4C257.4,566.7,257.6,566.7,257.9,566.6z M308.6,606c-0.1,0-0.1,0-0.2,0
		c0,0.2,0,0.3,0.1,0.5c0,0,0.1,0,0.1,0C308.6,606.3,308.6,606.1,308.6,606z M266.9,566.4c0,0,0,0.1,0,0.1c0.4,0,0.8,0,1.2,0
		c0,0,0-0.1,0-0.1C267.7,566.4,267.3,566.4,266.9,566.4z M310.8,594.7c-0.1,0-0.2,0-0.2,0c0,0.2,0.1,0.3,0.1,0.5c0,0,0.1,0,0.1,0
		C310.8,595,310.8,594.8,310.8,594.7z M310.9,607.7c0-0.1-0.1-0.1-0.1-0.2c-0.2,0.1-0.3,0.2-0.5,0.3c0,0.1,0.1,0.1,0.1,0.2
		C310.5,607.9,310.7,607.8,310.9,607.7z M252.8,570.4c-0.2-0.1-0.3-0.2-0.4-0.2c-0.1,0-0.2,0.1-0.3,0.2c0.1,0.1,0.2,0.2,0.3,0.2
		C252.5,570.7,252.6,570.6,252.8,570.4z M198.1,587.4c-0.1,0-0.2,0.1-0.2,0.1c0,0.1,0,0.2,0.1,0.3c0.1,0,0.2-0.1,0.2-0.1
		C198.2,587.6,198.2,587.5,198.1,587.4z M319.4,608.3c-0.1-0.1-0.1-0.2-0.2-0.2c-0.1,0-0.2,0.1-0.2,0.2c0,0.1,0.1,0.2,0.2,0.3
		C319.3,608.4,319.3,608.4,319.4,608.3z M319.6,607.4c0-0.1,0-0.1,0-0.2c-0.2,0-0.4,0-0.5,0c0,0.1,0,0.1,0,0.2
		C319.2,607.4,319.4,607.4,319.6,607.4z M322,602.8c-0.2-0.1-0.2-0.2-0.3-0.2c-0.1,0-0.1,0.1-0.2,0.2c0.1,0.1,0.2,0.1,0.2,0.1
		C321.8,603,321.9,602.9,322,602.8z M198.3,609.2c-0.1-0.1-0.1-0.1-0.2-0.2c0,0.1-0.1,0.2-0.1,0.2c0,0.1,0.1,0.1,0.2,0.2
		C198.1,609.4,198.2,609.3,198.3,609.2z"/>
</g>
<g>
	<path fill="#00AE76" d="M270.4,114.4L124,6.7L154.8,173C154.8,173,223,166.3,270.4,114.4z"/>
	
		<ellipse transform="matrix(0.9833 -0.1819 0.1819 0.9833 -5.1577 27.1622)" fill="#FFA385" cx="145.5" cy="41.7" rx="8.5" ry="7.5"/>
	<ellipse transform="matrix(0.9833 -0.1819 0.1819 0.9833 -8.5574 31.7734)" fill="#FFA385" cx="169" cy="62.5" rx="8.5" ry="7.5"/>
	
		<ellipse transform="matrix(0.9833 -0.1819 0.1819 0.9833 -12.9108 29.344)" fill="#FFA385" cx="153.6" cy="85.1" rx="8.5" ry="7.5"/>
	
		<ellipse transform="matrix(0.9833 -0.1819 0.1819 0.9833 -18.0286 37.761)" fill="#85FFC3" cx="196.9" cy="117.2" rx="8.5" ry="7.5"/>
	
		<ellipse transform="matrix(0.9833 -0.1819 0.1819 0.9833 -11.3385 37.5395)" fill="#85FFC3" cx="199" cy="80.6" rx="8.5" ry="7.5"/>
	
		<ellipse transform="matrix(0.9833 -0.1819 0.1819 0.9833 -16.6761 30.5697)" fill="#85FFC3" cx="158.4" cy="106.2" rx="8.5" ry="7.5"/>
	
		<ellipse transform="matrix(0.9833 -0.1819 0.1819 0.9833 -18.7815 43.953)" fill="#85FFC3" cx="230.3" cy="124.4" rx="8.5" ry="7.5"/>
	
		<ellipse transform="matrix(0.9833 -0.1819 0.1819 0.9833 -14.1897 34.189)" fill="#FFA385" cx="179.3" cy="94.5" rx="8.5" ry="7.5"/>
	
		<ellipse transform="matrix(0.9833 -0.1819 0.1819 0.9833 -14.5528 41.7663)" fill="#FFA385" cx="220.5" cy="100.2" rx="8.5" ry="7.5"/>
	
		<ellipse transform="matrix(0.9833 -0.1819 0.1819 0.9833 -20.7134 31.872)" fill="#FFA385" cx="163.4" cy="128.9" rx="8.5" ry="7.5"/>
	
		<ellipse transform="matrix(0.9833 -0.1819 0.1819 0.9833 -23.8843 36.2527)" fill="#FFA385" cx="185.7" cy="148.4" rx="8.5" ry="7.5"/>
</g>
<path fill="#CE9287" d="M0.4,960.2v15.9C-0.1,971.1-0.1,965.7,0.4,960.2z"/>
<polygon fill="#CE9287" points="111,592.7 73.5,738 14.4,738 14.4,725.9 35.3,571.4 44,573.8 110.9,592.6 "/>
<path fill="#CE9287" d="M486,973.4c0,0.2,0,0.4,0,0.7L486,973.4z"/>
<path fill="#CE9287" d="M486.1,972.8c0,0.1,0,0.3,0,0.6L486.1,972.8z"/>
<polygon fill="#CE9287" points="515.4,725.9 515.4,738 456.5,738 419,593 418.9,592.7 450.7,583.7 494.6,571.4 "/>
<path fill="#CE9287" d="M529.4,976.1v-15.9C529.8,965.7,529.9,971.1,529.4,976.1z"/>
<path fill="#FFFFFF" d="M486,973.4c0,0.2,0,0.4,0,0.7L486,973.4z"/>
<path fill="#FFFFFF" d="M486.1,972.8c0,0.1,0,0.3,0,0.6L486.1,972.8z"/>
</svg>
